<svg version="1.2" xmlns="http://www.w3.org/2000/svg" viewBox="0 0 1314 1605" width="1314" height="1605"><style>.a{fill:#ff0}</style><path fill-rule="evenodd" class="a" d="m1217 63l-25.4 36.3c41.9 40.6 63.8 91.4 71.1 146.8 13.7-1 25.8 2.1 34.1 7.9 21.8 15.3 20.2 55.6 5.2 77-9.5 13.4-24.2 24.4-39.7 31.3 8.8 2.6 18.9 6 24.8 10.2 23.1 16.1 24.7 49.2 6.1 75.8-17 24.2-45.9 37.6-76.3 32.9 23.3 19.8 24 59.4 0.4 93.1-24.5 34.9-66.2 48.9-92.8 30.3-10.7-7.5-16.9-18.9-21.1-30.7-16.3 9.9-26.3 6.4-39.2 4.5 5.5 7.4 15.5 36.2 3.8 52.9-11.1 15.9-30.6 23.5-41.3 16 0 0-48-118.2-135.7-179.6-87.7-61.4-215.5-66.3-215.5-66.3-10.7-7.5-10.2-28.4 0.9-44.3 11.7-16.7 42.2-17.2 51-14.6-6.2-11.4-12.8-19.7-9.2-38.4-12.1 0.4-25.4-1.8-36.1-9.3-26.6-18.6-27.7-62.6-3.3-97.5 23.6-33.8 61-46.6 88.1-31.2-15.2-27.2-12.5-59 4.5-83.2 18.6-26.5 50.3-36.3 73.3-20.2 6 4.1 12.6 12.3 18.5 20 0.8-17.2 6.1-34.8 15.5-48.3 15-21.4 52.3-36.7 74.1-21.4 8.8 6.1 15.4 16 19.1 29.3 54.5-12.1 110.1-8.6 162.2 16.6l25.3-36.1 59.3-23zm-1120.6 1478l25.3-36.1c-41.5-40.4-63.8-91.4-71.1-146.8-13.7 1-25.4-1.8-34.1-7.9-21.8-15.3-20.2-55.6-5.2-77 9.4-13.5 24.2-24.5 40.1-31.1-9.3-2.9-19.3-6.3-25.2-10.5-23.1-16.1-24.7-49.2-6.1-75.8 17-24.2 45.9-37.6 76.7-32.6-23.7-20.1-24.4-59.7-0.8-93.4 24.5-35 66.2-48.9 92.8-30.3 10.7 7.5 17.1 19.6 21.1 30.7 16.4-9.9 26.3-6.4 39.2-4.5-5.5-7.4-15.5-36.2-3.8-52.9 11.2-15.9 30.7-23.5 41.4-16 0 0 48.4 118.4 136.1 179.8 87.7 61.4 215.1 66.1 215.1 66.1 10.7 7.5 10.2 28.4-0.9 44.3-11.7 16.7-42.2 17.2-51 14.6 6.2 11.5 12.9 19.7 9.2 38.4 12.3 0.3 25.4 1.8 36.1 9.3 26.6 18.6 27.8 62.6 3.3 97.5-23.6 33.8-61 46.6-87.7 31.5 14.8 26.9 12 58.7-4.9 82.9-18.6 26.6-50.3 36.3-73.3 20.2-6-4.2-12.6-12.4-18.1-19.8-1.2 16.9-6.5 34.5-15.9 48-15 21.4-52.3 36.7-74.1 21.4-8.3-5.8-15.4-16.1-19.1-29.3-54.5 12.1-109.7 8.9-162.2-16.6l-25.3 36.1-58.9 23.3zm644.7-859.2c70.7 49.5 90.5 144.4 44.4 210.3-46.4 66.2-142.2 79.7-212.8 30.2-71.1-49.7-91.2-144.2-44.8-210.5 46.2-65.8 142.2-79.6 213.2-30zm-362.2 578.1c0 0-20 77.6-40.3 106.6-20 28.6-89.4 78.7-91.1 81.1 64.1 14.1 153.6 11.1 201.7-57.5 27.8-39.7 38.3-102.8 41.7-146.5-25.2-7.1-52.4-17.2-78.3-31.8zm579.5-827.4c22.5 19.3 41.4 41.4 56.6 62.7 39.9-18.2 95.6-49.6 123.1-88.9 48.3-69.1 20.5-154.2-14.7-209.6-1.7 2.3-25.1 84.7-45.1 113.3-20.3 29-86.4 74.4-86.4 74.4zm-603.5 739c-22.5-19.3-41-41.1-56.6-62.7-39.9 18.1-95.6 49.5-123.4 89.2-48 68.7-20.2 153.8 15 209.2 1.7-2.3 25.1-84.7 45.1-113.3 20.3-29 86.4-74.4 86.4-74.4zm579.6-827.4c0 0 20-77.6 40.3-106.6 20-28.6 89.4-78.7 91.1-81.1-64.1-14.1-153.7-11.1-202 57.9-27.5 39.3-38 102.4-41.4 146.1 25.6 7.3 52.4 17.2 78.3 31.8zm-34 237.7c-8.6 12.3-20.5 21.7-34.3 26.2l-47.5 18.8c-3.1-5.7-14.2-15.2-23.7-21.9-9.9-6.9-22.7-14-29.1-15l1.8-50.8c-0.9-14.8 3.9-29.2 12.5-41.5 22.5-32.1 63.1-30.9 100.9-15.7 26.9 30 41.9 67.7 19.4 99.9zm-487.6 440.4c8.6-12.3 20.5-21.7 34.7-25.9l47.1-19.1c3.1 5.7 14.2 15.3 24.1 22.2 9.5 6.7 22.3 13.9 28.7 14.8l-1.4 51c0.5 14.5-4.3 28.9-12.9 41.2-22.8 32.6-63.1 31-100.5 16-27.3-30.3-42.6-67.7-19.8-100.2zm446.1-273.7c-9.2 13.1-25 18-35.7 10.5 0 0-24.6-62.1-70.2-94.1-46.1-32.2-112.8-34-112.8-34-10.8-7.6-11.6-24.1-2.4-37.2 9.2-13.1 78.5-20.1 146 27.1 67 46.9 84.2 114.5 75.1 127.7zm-404.5 107.2c9.1-13.1 25-18 35.7-10.5 0 0 24.5 62.1 70.5 94.3 45.6 31.9 112.4 33.7 112.4 33.7 10.8 7.5 11.6 24 2.4 37.1-9.5 13.5-78.8 20.6-145.9-26.4-67.4-47.3-84.6-114.8-75.1-128.2zm423.4-228.9c38.3-15.7 70.7-29.1 104.4-5.5 24.2 17 42.1 42 25.2 66.2-18.6 26.6-58.5 25.3-87.5 22.7l-45-2.5c0 0-16.4-45.8-40.2-62.5zm-442.4 350.4c-38.3 15.7-70.7 29.1-104.4 5.5-24.2-17-42.2-42-25.2-66.2 18.6-26.6 58.5-25.3 87.5-22.7l45 2.5c0 0 16.4 45.8 40.2 62.5zm307.7-396.2c-23.8-16.6-72.5-16.4-72.5-16.4l-17.7-41.4c-12.4-26.4-27.2-63.4-8.6-90 16.9-24.2 46.6-15.8 70.8 1.1 33.7 23.6 32.3 58.6 30.5 100zm-173 442c23.8 16.6 72.5 16.4 72.5 16.4l17.7 41.4c12.3 26.4 27.2 63.4 8.6 90-16.9 24.2-46.6 15.9-70.8-1.1-33.7-23.6-32.3-58.6-30.5-100zm-391.5 402.9c-44.9-63.4-75.4-161.6-20.7-239.8 28.6-40.9 84.3-74 127.1-93.7l-6.3-13.9c-39.3 17.3-104.3 51.1-136.3 96.7-57.2 81.8-34 207.4 27.6 263zm46.7 51c73.2 38.9 199.3 17.7 256.5-64 32-45.6 41.4-118.3 44.3-161.2l-14.8-0.9c-4.3 46.6-16.4 110.3-45 151.2-54.8 78.2-157.2 83.4-232.5 62.6zm909.2-1298.9c45.3 63.6 75.1 162 20.4 240.2-28.3 40.5-84 73.6-126.7 94l6.2 13.2c39.4-17.3 104.4-51.1 136.1-96.3 57.5-82.2 34.3-207.8-27.3-263.4zm-46.5-51c-73.3-38.9-199.3-17.7-256.8 64.4-31.7 45.2-41.1 117.9-44 160.8l14.9 1.6c4.2-47.3 16.2-111 44.6-151.5 54.7-78.1 157.8-83.4 232.7-62.9 0 0 8.6-12.3 8.6-12.4z"/></svg>