<?xml version="1.0" standalone="no"?>
<!DOCTYPE svg PUBLIC "-//W3C//DTD SVG 20010904//EN"
 "http://www.w3.org/TR/2001/REC-SVG-20010904/DTD/svg10.dtd">
<svg version="1.0" xmlns="http://www.w3.org/2000/svg"
 width="1428.000000pt" height="1428.000000pt" viewBox="0 0 1428.000000 1428.000000"
 preserveAspectRatio="xMidYMid meet">

<g transform="translate(0.000000,1428.000000) scale(0.100000,-0.100000)"
fill="#FFFF00" stroke="none">
<path d="M4929 12907 c-524 -749 -968 -1383 -987 -1409 -19 -27 -31 -48 -28
-48 3 0 440 622 972 1383 532 760 975 1391 985 1401 18 19 19 19 58 -7 55 -37
52 -26 -3 12 l-44 30 -953 -1362z"/>
<path d="M5980 14196 c0 -3 20 -19 45 -36 25 -17 45 -29 45 -26 0 3 -20 19
-45 36 -25 17 -45 29 -45 26z"/>
<path d="M6080 14126 c0 -3 20 -19 45 -36 25 -17 45 -29 45 -26 0 3 -20 19
-45 36 -25 17 -45 29 -45 26z"/>
<path d="M6180 14056 c0 -3 20 -19 45 -36 25 -17 45 -29 45 -26 0 3 -20 19
-45 36 -25 17 -45 29 -45 26z"/>
<path d="M6280 13986 c0 -3 20 -19 45 -36 25 -17 45 -29 45 -26 0 3 -20 19
-45 36 -25 17 -45 29 -45 26z"/>
<path d="M6380 13916 c0 -3 20 -19 45 -36 25 -17 45 -29 45 -26 0 3 -20 19
-45 36 -25 17 -45 29 -45 26z"/>
<path d="M6480 13846 c0 -3 20 -19 45 -36 25 -17 45 -29 45 -26 0 3 -20 19
-45 36 -25 17 -45 29 -45 26z"/>
<path d="M6580 13776 c0 -3 20 -19 45 -36 25 -17 45 -29 45 -26 0 3 -20 19
-45 36 -25 17 -45 29 -45 26z"/>
<path d="M6680 13706 c0 -3 20 -19 45 -36 25 -17 45 -29 45 -26 0 3 -20 19
-45 36 -25 17 -45 29 -45 26z"/>
<path d="M6780 13636 c0 -3 20 -19 45 -36 25 -17 45 -29 45 -26 0 3 -20 19
-45 36 -25 17 -45 29 -45 26z"/>
<path d="M6880 13566 c0 -3 20 -19 45 -36 25 -17 45 -29 45 -26 0 3 -20 19
-45 36 -25 17 -45 29 -45 26z"/>
<path d="M6980 13496 c0 -3 20 -19 45 -36 25 -17 45 -29 45 -26 0 3 -20 19
-45 36 -25 17 -45 29 -45 26z"/>
<path d="M7080 13426 c0 -3 20 -19 45 -36 25 -17 45 -29 45 -26 0 3 -20 19
-45 36 -25 17 -45 29 -45 26z"/>
<path d="M7180 13356 c0 -3 20 -19 45 -36 25 -17 45 -29 45 -26 0 3 -20 19
-45 36 -25 17 -45 29 -45 26z"/>
<path d="M7290 13278 c8 -9 512 -363 1120 -788 608 -425 1112 -777 1120 -783
13 -10 13 -9 0 5 -8 9 -512 363 -1120 788 -608 425 -1112 777 -1120 783 -13
10 -13 9 0 -5z"/>
<path d="M9550 11696 c0 -3 20 -19 45 -36 25 -17 45 -29 45 -26 0 3 -20 19
-45 36 -25 17 -45 29 -45 26z"/>
<path d="M9650 11626 c0 -3 20 -19 45 -36 25 -17 45 -29 45 -26 0 3 -20 19
-45 36 -25 17 -45 29 -45 26z"/>
<path d="M9750 11556 c0 -3 20 -19 45 -36 25 -17 45 -29 45 -26 0 3 -20 19
-45 36 -25 17 -45 29 -45 26z"/>
<path d="M9850 11486 c0 -3 20 -19 45 -36 25 -17 45 -29 45 -26 0 3 -20 19
-45 36 -25 17 -45 29 -45 26z"/>
<path d="M3870 11395 c-17 -25 -29 -45 -26 -45 3 0 19 20 36 45 17 25 29 45
26 45 -3 0 -19 -20 -36 -45z"/>
<path d="M9950 11416 c0 -3 20 -19 45 -36 25 -17 45 -29 45 -26 0 3 -20 19
-45 36 -25 17 -45 29 -45 26z"/>
<path d="M10050 11346 c0 -3 20 -19 45 -36 25 -17 45 -29 45 -26 0 3 -20 19
-45 36 -25 17 -45 29 -45 26z"/>
<path d="M3800 11295 c-17 -25 -29 -45 -26 -45 3 0 19 20 36 45 17 25 29 45
26 45 -3 0 -19 -20 -36 -45z"/>
<path d="M10150 11276 c0 -3 20 -19 45 -36 25 -17 45 -29 45 -26 0 3 -20 19
-45 36 -25 17 -45 29 -45 26z"/>
<path d="M3730 11195 c-17 -25 -29 -45 -26 -45 3 0 19 20 36 45 17 25 29 45
26 45 -3 0 -19 -20 -36 -45z"/>
<path d="M10250 11206 c0 -3 20 -19 45 -36 25 -17 45 -29 45 -26 0 3 -20 19
-45 36 -25 17 -45 29 -45 26z"/>
<path d="M3660 11095 c-17 -25 -29 -45 -26 -45 3 0 19 20 36 45 17 25 29 45
26 45 -3 0 -19 -20 -36 -45z"/>
<path d="M10350 11136 c0 -3 20 -19 45 -36 25 -17 45 -29 45 -26 0 3 -20 19
-45 36 -25 17 -45 29 -45 26z"/>
<path d="M10450 11066 c0 -3 20 -19 45 -36 25 -17 45 -29 45 -26 0 3 -20 19
-45 36 -25 17 -45 29 -45 26z"/>
<path d="M3590 10995 c-17 -25 -29 -45 -26 -45 3 0 19 20 36 45 17 25 29 45
26 45 -3 0 -19 -20 -36 -45z"/>
<path d="M10550 10996 c0 -3 20 -19 45 -36 25 -17 45 -29 45 -26 0 3 -20 19
-45 36 -25 17 -45 29 -45 26z"/>
<path d="M3520 10895 c-17 -25 -29 -45 -26 -45 3 0 19 20 36 45 17 25 29 45
26 45 -3 0 -19 -20 -36 -45z"/>
<path d="M10650 10926 c0 -3 20 -19 45 -36 25 -17 45 -29 45 -26 0 3 -20 19
-45 36 -25 17 -45 29 -45 26z"/>
<path d="M10750 10856 c0 -3 20 -19 45 -36 25 -17 45 -29 45 -26 0 3 -20 19
-45 36 -25 17 -45 29 -45 26z"/>
<path d="M3450 10795 c-17 -25 -29 -45 -26 -45 3 0 19 20 36 45 17 25 29 45
26 45 -3 0 -19 -20 -36 -45z"/>
<path d="M10850 10786 c0 -3 20 -19 45 -36 25 -17 45 -29 45 -26 0 3 -20 19
-45 36 -25 17 -45 29 -45 26z"/>
<path d="M9545 10729 l-120 -49 -55 -80 c-39 -57 -59 -78 -70 -74 -238 99
-398 117 -680 79 l-45 -6 -23 49 c-49 109 -158 136 -286 73 -92 -45 -154 -127
-171 -227 -13 -79 -12 -78 -63 -26 -198 203 -513 -85 -413 -376 l18 -54 -26 9
c-14 4 -55 8 -91 7 -79 0 -140 -25 -204 -84 -165 -152 -200 -395 -74 -506 37
-32 73 -47 141 -59 36 -6 37 -7 37 -48 0 -24 9 -60 20 -82 11 -22 20 -40 20
-41 0 -2 -24 -3 -52 -3 -98 -1 -156 -28 -187 -89 -29 -58 -35 -103 -17 -145
13 -32 19 -37 49 -37 50 0 235 -27 343 -51 222 -48 468 -148 610 -248 206
-145 394 -376 556 -687 69 -131 75 -139 105 -142 18 -2 49 6 72 17 88 46 120
136 84 243 l-19 57 65 4 c36 2 75 7 87 11 17 6 23 1 39 -34 39 -86 124 -135
220 -127 78 6 144 38 216 105 137 126 182 345 93 451 -15 18 -20 32 -14 36 5
3 14 4 19 1 15 -9 132 14 173 35 130 66 213 214 188 335 -15 69 -65 128 -131
151 -27 10 -49 20 -49 23 0 3 17 15 38 27 139 80 209 227 172 363 -21 79 -104
140 -192 140 -23 0 -28 5 -33 38 -15 88 -57 228 -90 300 -47 100 -85 160 -163
254 l-64 78 55 78 55 78 7 142 c7 135 6 142 -11 141 -11 0 -73 -23 -139 -50z
m-560 -472 c44 -15 89 -33 99 -40 19 -14 19 -15 0 -39 l-18 -25 -91 20 c-134
29 -378 29 -499 -1 -387 -96 -580 -351 -655 -867 l-17 -120 -32 -3 c-31 -3
-32 -2 -32 35 1 117 53 380 103 511 78 209 209 353 412 454 164 82 289 108
495 104 135 -3 166 -7 235 -29z m-62 -169 c42 -6 77 -12 77 -13 0 -2 -49 -42
-110 -89 -142 -113 -271 -235 -308 -294 -41 -64 -92 -191 -138 -342 -34 -112
-46 -136 -112 -232 -41 -60 -78 -108 -83 -108 -4 0 -43 17 -87 38 -44 21 -121
52 -172 68 l-92 29 6 70 c20 252 108 513 214 638 177 209 440 285 805 235z
m500 -126 c64 -76 141 -234 174 -357 23 -88 26 -119 26 -260 0 -134 -3 -173
-21 -239 -79 -288 -263 -476 -646 -664 -84 -41 -91 -43 -103 -26 -7 10 -13 23
-13 30 0 7 39 33 88 59 205 109 402 264 482 380 98 142 135 283 127 480 -7
186 -58 347 -167 529 -50 82 -51 85 -35 110 9 14 22 22 28 20 7 -3 34 -31 60
-62z m-107 -160 c79 -147 134 -344 134 -482 0 -100 -26 -208 -72 -300 -75
-149 -243 -297 -490 -428 -53 -29 -103 -52 -110 -52 -8 0 -22 13 -31 30 -10
16 -65 79 -123 139 -58 61 -104 114 -102 119 1 4 34 52 72 107 55 79 85 111
143 153 111 81 257 206 297 255 48 59 113 200 176 385 29 83 56 152 59 152 3
0 25 -35 47 -78z"/>
<path d="M3380 10695 c-17 -25 -29 -45 -26 -45 3 0 19 20 36 45 17 25 29 45
26 45 -3 0 -19 -20 -36 -45z"/>
<path d="M10950 10716 c0 -3 20 -19 45 -36 25 -17 45 -29 45 -26 0 3 -20 19
-45 36 -25 17 -45 29 -45 26z"/>
<path d="M11050 10646 c0 -3 20 -19 45 -36 25 -17 45 -29 45 -26 0 3 -20 19
-45 36 -25 17 -45 29 -45 26z"/>
<path d="M3310 10595 c-17 -25 -29 -45 -26 -45 3 0 19 20 36 45 17 25 29 45
26 45 -3 0 -19 -20 -36 -45z"/>
<path d="M11150 10576 c0 -3 20 -19 45 -36 25 -17 45 -29 45 -26 0 3 -20 19
-45 36 -25 17 -45 29 -45 26z"/>
<path d="M3240 10495 c-17 -25 -29 -45 -26 -45 3 0 19 20 36 45 17 25 29 45
26 45 -3 0 -19 -20 -36 -45z"/>
<path d="M11250 10506 c0 -3 20 -19 45 -36 25 -17 45 -29 45 -26 0 3 -20 19
-45 36 -25 17 -45 29 -45 26z"/>
<path d="M3170 10395 c-17 -25 -29 -45 -26 -45 3 0 19 20 36 45 17 25 29 45
26 45 -3 0 -19 -20 -36 -45z"/>
<path d="M11350 10436 c0 -3 20 -19 45 -36 25 -17 45 -29 45 -26 0 3 -20 19
-45 36 -25 17 -45 29 -45 26z"/>
<path d="M11450 10366 c0 -3 20 -19 45 -36 25 -17 45 -29 45 -26 0 3 -20 19
-45 36 -25 17 -45 29 -45 26z"/>
<path d="M3100 10295 c-17 -25 -29 -45 -26 -45 3 0 19 20 36 45 17 25 29 45
26 45 -3 0 -19 -20 -36 -45z"/>
<path d="M11550 10296 c0 -3 20 -19 45 -36 25 -17 45 -29 45 -26 0 3 -20 19
-45 36 -25 17 -45 29 -45 26z"/>
<path d="M3030 10195 c-17 -25 -29 -45 -26 -45 3 0 19 20 36 45 17 25 29 45
26 45 -3 0 -19 -20 -36 -45z"/>
<path d="M11650 10226 c0 -3 20 -19 45 -36 25 -17 45 -29 45 -26 0 3 -20 19
-45 36 -25 17 -45 29 -45 26z"/>
<path d="M11750 10156 c0 -3 20 -19 45 -36 25 -17 45 -29 45 -26 0 3 -20 19
-45 36 -25 17 -45 29 -45 26z"/>
<path d="M2960 10095 c-17 -25 -29 -45 -26 -45 3 0 19 20 36 45 17 25 29 45
26 45 -3 0 -19 -20 -36 -45z"/>
<path d="M11850 10086 c0 -3 20 -19 45 -36 25 -17 45 -29 45 -26 0 3 -20 19
-45 36 -25 17 -45 29 -45 26z"/>
<path d="M2890 9995 c-17 -25 -29 -45 -26 -45 3 0 19 20 36 45 17 25 29 45 26
45 -3 0 -19 -20 -36 -45z"/>
<path d="M11950 10016 c0 -3 20 -19 45 -36 25 -17 45 -29 45 -26 0 3 -20 19
-45 36 -25 17 -45 29 -45 26z"/>
<path d="M12050 9946 c0 -3 20 -19 45 -36 25 -17 45 -29 45 -26 0 3 -20 19
-45 36 -25 17 -45 29 -45 26z"/>
<path d="M2820 9895 c-17 -25 -29 -45 -26 -45 3 0 19 20 36 45 17 25 29 45 26
45 -3 0 -19 -20 -36 -45z"/>
<path d="M12160 9868 c14 -14 2067 -1454 2101 -1473 56 -32 -126 97 -1031 730
-1158 810 -1090 763 -1070 743z"/>
<path d="M2750 9795 c-17 -25 -29 -45 -26 -45 3 0 19 20 36 45 17 25 29 45 26
45 -3 0 -19 -20 -36 -45z"/>
<path d="M2680 9695 c-17 -25 -29 -45 -26 -45 3 0 19 20 36 45 17 25 29 45 26
45 -3 0 -19 -20 -36 -45z"/>
<path d="M2610 9595 c-17 -25 -29 -45 -26 -45 3 0 19 20 36 45 17 25 29 45 26
45 -3 0 -19 -20 -36 -45z"/>
<path d="M1579 8123 c-545 -780 -996 -1425 -1002 -1433 -10 -13 -9 -13 5 0 9
8 458 647 998 1420 541 773 987 1411 993 1418 5 6 7 12 4 12 -3 0 -452 -638
-998 -1417z"/>
<path d="M7165 8874 c-75 -26 -115 -93 -115 -196 0 -80 13 -123 91 -309 l62
-146 97 -11 c54 -6 129 -23 166 -36 38 -14 69 -24 70 -23 2 1 6 88 10 192 7
208 0 275 -42 356 -58 115 -239 208 -339 173z"/>
<path d="M7831 8621 c-68 -28 -117 -75 -150 -144 -28 -58 -31 -72 -37 -218
l-6 -156 31 -11 c43 -15 129 -74 174 -118 l37 -37 136 53 c150 59 205 98 252
178 23 41 27 58 27 127 0 70 -4 89 -33 149 -50 107 -89 148 -158 171 -85 27
-217 30 -273 6z"/>
<path d="M7119 8118 c-53 -14 -81 -48 -86 -105 -8 -77 9 -90 141 -108 125 -17
279 -67 362 -116 121 -72 235 -202 320 -366 26 -48 51 -91 58 -95 33 -22 111
3 140 44 35 50 8 177 -65 301 -131 222 -365 389 -621 442 -77 17 -194 18 -249
3z"/>
<path d="M8375 8014 c-77 -20 -396 -143 -414 -160 -2 -2 17 -26 41 -53 33 -36
123 -191 133 -228 2 -8 123 -15 268 -16 187 -2 222 6 292 58 37 29 75 97 75
136 0 71 -85 176 -189 232 -50 28 -156 44 -206 31z"/>
<path d="M6935 7802 c-195 -51 -341 -167 -424 -336 -50 -104 -65 -169 -65
-286 1 -306 197 -573 504 -685 100 -36 279 -46 392 -21 309 69 513 339 495
655 -10 187 -77 331 -217 471 -93 94 -186 149 -315 190 -99 31 -274 37 -370
12z"/>
<path d="M6284 6946 c-43 -19 -74 -62 -74 -103 0 -51 44 -172 92 -255 59 -101
209 -249 313 -309 166 -96 296 -133 457 -127 125 4 154 18 176 86 12 37 12 46
-5 79 -18 38 -18 38 -108 51 -210 29 -382 97 -489 194 -77 68 -167 190 -221
299 -52 103 -72 115 -141 85z"/>
<path d="M5770 6724 c-130 -22 -191 -53 -230 -117 -44 -72 -15 -175 72 -251
102 -89 208 -115 334 -83 60 16 351 133 368 148 5 5 -7 26 -30 51 -22 24 -62
86 -89 139 l-49 97 -101 6 c-187 12 -250 14 -275 10z"/>
<path d="M530 6625 c-17 -25 -29 -45 -26 -45 3 0 19 20 36 45 17 25 29 45 26
45 -3 0 -19 -20 -36 -45z"/>
<path d="M460 6525 c-17 -25 -29 -45 -26 -45 3 0 19 20 36 45 17 25 29 45 26
45 -3 0 -19 -20 -36 -45z"/>
<path d="M390 6425 c-17 -25 -29 -45 -26 -45 3 0 19 20 36 45 17 25 29 45 26
45 -3 0 -19 -20 -36 -45z"/>
<path d="M5360 6434 c-42 -18 -77 -49 -96 -86 -18 -35 -18 -125 1 -178 8 -23
15 -44 15 -45 0 -1 -22 0 -48 3 -30 2 -61 -2 -85 -11 l-37 -16 -25 48 c-49 98
-150 146 -252 122 -196 -47 -354 -276 -314 -455 7 -30 23 -71 37 -91 13 -20
24 -37 24 -39 0 -2 -31 -6 -70 -8 -164 -12 -303 -143 -318 -300 -9 -106 41
-184 142 -223 l45 -17 -57 -38 c-113 -73 -164 -162 -164 -285 0 -117 60 -189
167 -203 49 -6 60 -11 63 -27 20 -140 87 -328 152 -432 44 -70 135 -185 151
-191 19 -7 7 -35 -46 -111 l-55 -79 0 -141 c0 -77 3 -141 8 -140 4 0 63 24
132 52 l124 52 54 75 c62 87 56 85 186 40 186 -64 362 -74 581 -34 28 5 32 1
58 -48 38 -74 83 -103 161 -103 146 0 264 107 299 272 6 29 14 53 18 53 4 0
18 -15 33 -34 14 -19 45 -43 69 -55 119 -58 263 12 338 164 28 56 32 75 31
142 0 45 -7 96 -16 122 -9 24 -16 45 -16 47 0 2 14 -2 30 -8 46 -16 148 -6
202 20 172 84 278 310 222 475 -28 81 -92 131 -185 145 l-52 7 -2 45 c-1 25
-10 60 -19 77 -9 18 -16 36 -16 40 0 4 27 9 61 9 84 2 145 35 176 94 25 49 30
109 12 143 -17 31 -28 37 -72 37 -65 0 -288 38 -410 70 -406 105 -670 290
-909 635 -73 105 -185 301 -213 372 -22 54 -52 64 -115 37z m84 -599 c5 -17
-6 -26 -66 -55 -185 -91 -372 -227 -464 -339 -63 -76 -126 -197 -151 -291 -28
-104 -24 -308 9 -431 33 -123 77 -228 139 -330 27 -45 49 -87 49 -93 0 -6 -7
-20 -15 -30 -15 -19 -16 -19 -51 15 -91 87 -177 260 -216 431 -31 138 -29 330
5 460 72 276 251 464 622 651 115 58 125 59 139 12z m106 -142 c18 -25 75 -89
126 -142 l92 -96 -78 -110 c-51 -73 -94 -122 -126 -144 -90 -64 -250 -199
-299 -253 -61 -67 -119 -188 -186 -388 -28 -85 -55 -158 -59 -163 -10 -11 -98
162 -130 259 -40 117 -52 190 -51 309 0 116 17 191 66 290 77 159 250 307 520
444 44 22 83 41 86 41 3 0 21 -21 39 -47z m558 -457 c38 -19 117 -51 175 -72
l106 -36 -5 -47 c-20 -175 -56 -336 -104 -459 -104 -270 -335 -427 -660 -448
-92 -7 -289 10 -319 26 -9 5 23 36 105 102 153 122 248 210 286 266 43 62 101
202 149 359 36 120 48 144 112 238 40 57 75 104 78 105 4 0 38 -16 77 -34z
m419 -142 c21 -6 22 -10 17 -63 -35 -339 -112 -570 -242 -729 -94 -114 -300
-239 -466 -282 -209 -53 -422 -48 -587 16 -64 25 -72 34 -49 62 l19 23 83 -18
c117 -25 415 -26 508 0 167 46 286 111 385 212 139 142 213 317 265 632 28
170 23 159 67 147z"/>
<path d="M320 6325 c-17 -25 -29 -45 -26 -45 3 0 19 20 36 45 17 25 29 45 26
45 -3 0 -19 -20 -36 -45z"/>
<path d="M6258 6283 c-153 -62 -207 -103 -249 -191 -30 -62 -30 -155 0 -233
27 -71 94 -165 129 -183 45 -23 134 -40 202 -39 126 2 209 53 262 161 33 65
33 69 36 222 l2 155 -60 29 c-33 16 -87 53 -119 83 -33 29 -61 53 -63 53 -1
-1 -65 -26 -140 -57z"/>
<path d="M250 6225 c-17 -25 -29 -45 -26 -45 3 0 19 20 36 45 17 25 29 45 26
45 -3 0 -19 -20 -36 -45z"/>
<path d="M180 6125 c-17 -25 -29 -45 -26 -45 3 0 19 20 36 45 17 25 29 45 26
45 -3 0 -19 -20 -36 -45z"/>
<path d="M6748 6092 c-3 -20 -6 -81 -7 -134 -1 -53 -4 -108 -7 -122 -2 -14 0
-65 6 -113 16 -148 75 -233 204 -296 121 -60 216 -39 266 59 20 39 25 63 24
119 -1 83 -7 105 -91 301 l-64 151 -82 7 c-84 7 -171 28 -218 52 -26 13 -27
13 -31 -24z"/>
<path d="M110 6025 c-17 -25 -29 -45 -26 -45 3 0 19 20 36 45 17 25 29 45 26
45 -3 0 -19 -20 -36 -45z"/>
<path d="M41 5926 l-30 -44 1012 -708 c557 -389 1033 -723 1060 -742 26 -19
47 -31 47 -28 0 3 -465 330 -1032 727 -568 397 -1042 730 -1052 740 -19 18
-19 19 7 58 37 55 26 52 -12 -3z"/>
<path d="M2140 4396 c0 -3 20 -19 45 -36 25 -17 45 -29 45 -26 0 3 -20 19 -45
36 -25 17 -45 29 -45 26z"/>
<path d="M2240 4326 c0 -3 20 -19 45 -36 25 -17 45 -29 45 -26 0 3 -20 19 -45
36 -25 17 -45 29 -45 26z"/>
<path d="M2340 4256 c0 -3 20 -19 45 -36 25 -17 45 -29 45 -26 0 3 -20 19 -45
36 -25 17 -45 29 -45 26z"/>
<path d="M2440 4186 c0 -3 20 -19 45 -36 25 -17 45 -29 45 -26 0 3 -20 19 -45
36 -25 17 -45 29 -45 26z"/>
<path d="M2540 4116 c0 -3 20 -19 45 -36 25 -17 45 -29 45 -26 0 3 -20 19 -45
36 -25 17 -45 29 -45 26z"/>
<path d="M2640 4046 c0 -3 20 -19 45 -36 25 -17 45 -29 45 -26 0 3 -20 19 -45
36 -25 17 -45 29 -45 26z"/>
<path d="M2740 3976 c0 -3 20 -19 45 -36 25 -17 45 -29 45 -26 0 3 -20 19 -45
36 -25 17 -45 29 -45 26z"/>
<path d="M2840 3906 c0 -3 20 -19 45 -36 25 -17 45 -29 45 -26 0 3 -20 19 -45
36 -25 17 -45 29 -45 26z"/>
<path d="M2940 3836 c0 -3 20 -19 45 -36 25 -17 45 -29 45 -26 0 3 -20 19 -45
36 -25 17 -45 29 -45 26z"/>
<path d="M3040 3766 c0 -3 20 -19 45 -36 25 -17 45 -29 45 -26 0 3 -20 19 -45
36 -25 17 -45 29 -45 26z"/>
<path d="M3140 3696 c0 -3 20 -19 45 -36 25 -17 45 -29 45 -26 0 3 -20 19 -45
36 -25 17 -45 29 -45 26z"/>
<path d="M3240 3626 c0 -3 20 -19 45 -36 25 -17 45 -29 45 -26 0 3 -20 19 -45
36 -25 17 -45 29 -45 26z"/>
<path d="M3340 3556 c0 -3 20 -19 45 -36 25 -17 45 -29 45 -26 0 3 -20 19 -45
36 -25 17 -45 29 -45 26z"/>
<path d="M3440 3486 c0 -3 20 -19 45 -36 25 -17 45 -29 45 -26 0 3 -20 19 -45
36 -25 17 -45 29 -45 26z"/>
<path d="M3540 3416 c0 -3 20 -19 45 -36 25 -17 45 -29 45 -26 0 3 -20 19 -45
36 -25 17 -45 29 -45 26z"/>
<path d="M3640 3346 c0 -3 20 -19 45 -36 25 -17 45 -29 45 -26 0 3 -20 19 -45
36 -25 17 -45 29 -45 26z"/>
<path d="M3740 3276 c0 -3 20 -19 45 -36 25 -17 45 -29 45 -26 0 3 -20 19 -45
36 -25 17 -45 29 -45 26z"/>
<path d="M3840 3206 c0 -3 20 -19 45 -36 25 -17 45 -29 45 -26 0 3 -20 19 -45
36 -25 17 -45 29 -45 26z"/>
<path d="M3940 3136 c0 -3 20 -19 45 -36 25 -17 45 -29 45 -26 0 3 -20 19 -45
36 -25 17 -45 29 -45 26z"/>
<path d="M4040 3066 c0 -3 20 -19 45 -36 25 -17 45 -29 45 -26 0 3 -20 19 -45
36 -25 17 -45 29 -45 26z"/>
<path d="M4140 2996 c0 -3 20 -19 45 -36 25 -17 45 -29 45 -26 0 3 -20 19 -45
36 -25 17 -45 29 -45 26z"/>
<path d="M4240 2926 c0 -3 20 -19 45 -36 25 -17 45 -29 45 -26 0 3 -20 19 -45
36 -25 17 -45 29 -45 26z"/>
<path d="M4340 2856 c0 -3 20 -19 45 -36 25 -17 45 -29 45 -26 0 3 -20 19 -45
36 -25 17 -45 29 -45 26z"/>
<path d="M4440 2786 c0 -3 20 -19 45 -36 25 -17 45 -29 45 -26 0 3 -20 19 -45
36 -25 17 -45 29 -45 26z"/>
<path d="M4540 2716 c0 -3 20 -19 45 -36 25 -17 45 -29 45 -26 0 3 -20 19 -45
36 -25 17 -45 29 -45 26z"/>
<path d="M4640 2646 c0 -3 20 -19 45 -36 25 -17 45 -29 45 -26 0 3 -20 19 -45
36 -25 17 -45 29 -45 26z"/>
<path d="M4750 2568 c8 -9 512 -363 1120 -788 608 -425 1112 -777 1120 -783
13 -10 13 -9 0 5 -8 9 -512 363 -1120 788 -608 425 -1112 777 -1120 783 -13
10 -13 9 0 -5z"/>
<path d="M7010 986 c0 -3 20 -19 45 -36 25 -17 45 -29 45 -26 0 3 -20 19 -45
36 -25 17 -45 29 -45 26z"/>
<path d="M7110 916 c0 -3 20 -19 45 -36 25 -17 45 -29 45 -26 0 3 -20 19 -45
36 -25 17 -45 29 -45 26z"/>
<path d="M7210 846 c0 -3 20 -19 45 -36 25 -17 45 -29 45 -26 0 3 -20 19 -45
36 -25 17 -45 29 -45 26z"/>
<path d="M7310 776 c0 -3 20 -19 45 -36 25 -17 45 -29 45 -26 0 3 -20 19 -45
36 -25 17 -45 29 -45 26z"/>
<path d="M7410 706 c0 -3 20 -19 45 -36 25 -17 45 -29 45 -26 0 3 -20 19 -45
36 -25 17 -45 29 -45 26z"/>
<path d="M7510 636 c0 -3 20 -19 45 -36 25 -17 45 -29 45 -26 0 3 -20 19 -45
36 -25 17 -45 29 -45 26z"/>
<path d="M7610 566 c0 -3 20 -19 45 -36 25 -17 45 -29 45 -26 0 3 -20 19 -45
36 -25 17 -45 29 -45 26z"/>
<path d="M7710 496 c0 -3 20 -19 45 -36 25 -17 45 -29 45 -26 0 3 -20 19 -45
36 -25 17 -45 29 -45 26z"/>
<path d="M7810 426 c0 -3 20 -19 45 -36 25 -17 45 -29 45 -26 0 3 -20 19 -45
36 -25 17 -45 29 -45 26z"/>
<path d="M7910 356 c0 -3 20 -19 45 -36 25 -17 45 -29 45 -26 0 3 -20 19 -45
36 -25 17 -45 29 -45 26z"/>
<path d="M8010 286 c0 -3 20 -19 45 -36 25 -17 45 -29 45 -26 0 3 -20 19 -45
36 -25 17 -45 29 -45 26z"/>
<path d="M8110 216 c0 -3 20 -19 45 -36 25 -17 45 -29 45 -26 0 3 -20 19 -45
36 -25 17 -45 29 -45 26z"/>
<path d="M8210 146 c0 -3 20 -19 45 -36 25 -17 45 -29 45 -26 0 3 -20 19 -45
36 -25 17 -45 29 -45 26z"/>
<path d="M8310 76 c0 -3 20 -19 45 -36 25 -17 45 -29 45 -26 0 3 -20 19 -45
36 -25 17 -45 29 -45 26z"/>
</g>
</svg>
