<svg xmlns="http://www.w3.org/2000/svg" xmlns:xlink="http://www.w3.org/1999/xlink" version="1.1" width="1000" height="1000" viewBox="0 0 1000 1000" xml:space="preserve">
<desc>Created with Fabric.js 3.5.0</desc>
<defs>
</defs>
<rect width="100%" height="100%" fill="none"/>
<g transform="matrix(0.9022 0 0 0.9022 491.3944 475.3944)" id="34467">
<g style="" vector-effect="non-scaling-stroke">
		<g transform="matrix(0.1333 0 0 -0.1333 -293.2128 -762.647)">
<path style="stroke: none; stroke-width: 1; stroke-dasharray: none; stroke-linecap: butt; stroke-dashoffset: 0; stroke-linejoin: miter; stroke-miterlimit: 4; is-custom-font: none; font-file-url: none; fill: rgb(255,255,0); fill-rule: nonzero; opacity: 1;" transform=" translate(-4941.1612, -12859.5)" d="M 4929 12907 c -524 -749 -968 -1383 -987 -1409 c -19 -27 -31 -48 -28 -48 c 3 0 440 622 972 1383 c 532 760 975 1391 985 1401 c 18 19 19 19 58 -7 c 55 -37 52 -26 -3 12 l -44 30 l -953 -1362 z" stroke-linecap="round"/>
</g>
		<g transform="matrix(0.1333 0 0 -0.1333 -148.6682 -936.6678)">
<path style="stroke: none; stroke-width: 1; stroke-dasharray: none; stroke-linecap: butt; stroke-dashoffset: 0; stroke-linejoin: miter; stroke-miterlimit: 4; is-custom-font: none; font-file-url: none; fill: rgb(255,255,0); fill-rule: nonzero; opacity: 1;" transform=" translate(-6025, -14165)" d="M 5980 14196 c 0 -3 20 -19 45 -36 c 25 -17 45 -29 45 -26 c 0 3 -20 19 -45 36 c -25 17 -45 29 -45 26 z" stroke-linecap="round"/>
</g>
		<g transform="matrix(0.1333 0 0 -0.1333 -135.3349 -927.3344)">
<path style="stroke: none; stroke-width: 1; stroke-dasharray: none; stroke-linecap: butt; stroke-dashoffset: 0; stroke-linejoin: miter; stroke-miterlimit: 4; is-custom-font: none; font-file-url: none; fill: rgb(255,255,0); fill-rule: nonzero; opacity: 1;" transform=" translate(-6125, -14095)" d="M 6080 14126 c 0 -3 20 -19 45 -36 c 25 -17 45 -29 45 -26 c 0 3 -20 19 -45 36 c -25 17 -45 29 -45 26 z" stroke-linecap="round"/>
</g>
		<g transform="matrix(0.1333 0 0 -0.1333 -122.0015 -918.0011)">
<path style="stroke: none; stroke-width: 1; stroke-dasharray: none; stroke-linecap: butt; stroke-dashoffset: 0; stroke-linejoin: miter; stroke-miterlimit: 4; is-custom-font: none; font-file-url: none; fill: rgb(255,255,0); fill-rule: nonzero; opacity: 1;" transform=" translate(-6225, -14025)" d="M 6180 14056 c 0 -3 20 -19 45 -36 c 25 -17 45 -29 45 -26 c 0 3 -20 19 -45 36 c -25 17 -45 29 -45 26 z" stroke-linecap="round"/>
</g>
		<g transform="matrix(0.1333 0 0 -0.1333 -108.6681 -908.6678)">
<path style="stroke: none; stroke-width: 1; stroke-dasharray: none; stroke-linecap: butt; stroke-dashoffset: 0; stroke-linejoin: miter; stroke-miterlimit: 4; is-custom-font: none; font-file-url: none; fill: rgb(255,255,0); fill-rule: nonzero; opacity: 1;" transform=" translate(-6325, -13955)" d="M 6280 13986 c 0 -3 20 -19 45 -36 c 25 -17 45 -29 45 -26 c 0 3 -20 19 -45 36 c -25 17 -45 29 -45 26 z" stroke-linecap="round"/>
</g>
		<g transform="matrix(0.1333 0 0 -0.1333 -95.3349 -899.3344)">
<path style="stroke: none; stroke-width: 1; stroke-dasharray: none; stroke-linecap: butt; stroke-dashoffset: 0; stroke-linejoin: miter; stroke-miterlimit: 4; is-custom-font: none; font-file-url: none; fill: rgb(255,255,0); fill-rule: nonzero; opacity: 1;" transform=" translate(-6425, -13885)" d="M 6380 13916 c 0 -3 20 -19 45 -36 c 25 -17 45 -29 45 -26 c 0 3 -20 19 -45 36 c -25 17 -45 29 -45 26 z" stroke-linecap="round"/>
</g>
		<g transform="matrix(0.1333 0 0 -0.1333 -82.0015 -890.0011)">
<path style="stroke: none; stroke-width: 1; stroke-dasharray: none; stroke-linecap: butt; stroke-dashoffset: 0; stroke-linejoin: miter; stroke-miterlimit: 4; is-custom-font: none; font-file-url: none; fill: rgb(255,255,0); fill-rule: nonzero; opacity: 1;" transform=" translate(-6525, -13815)" d="M 6480 13846 c 0 -3 20 -19 45 -36 c 25 -17 45 -29 45 -26 c 0 3 -20 19 -45 36 c -25 17 -45 29 -45 26 z" stroke-linecap="round"/>
</g>
		<g transform="matrix(0.1333 0 0 -0.1333 -68.6681 -880.6678)">
<path style="stroke: none; stroke-width: 1; stroke-dasharray: none; stroke-linecap: butt; stroke-dashoffset: 0; stroke-linejoin: miter; stroke-miterlimit: 4; is-custom-font: none; font-file-url: none; fill: rgb(255,255,0); fill-rule: nonzero; opacity: 1;" transform=" translate(-6625, -13745)" d="M 6580 13776 c 0 -3 20 -19 45 -36 c 25 -17 45 -29 45 -26 c 0 3 -20 19 -45 36 c -25 17 -45 29 -45 26 z" stroke-linecap="round"/>
</g>
		<g transform="matrix(0.1333 0 0 -0.1333 -55.3348 -871.3344)">
<path style="stroke: none; stroke-width: 1; stroke-dasharray: none; stroke-linecap: butt; stroke-dashoffset: 0; stroke-linejoin: miter; stroke-miterlimit: 4; is-custom-font: none; font-file-url: none; fill: rgb(255,255,0); fill-rule: nonzero; opacity: 1;" transform=" translate(-6725, -13675)" d="M 6680 13706 c 0 -3 20 -19 45 -36 c 25 -17 45 -29 45 -26 c 0 3 -20 19 -45 36 c -25 17 -45 29 -45 26 z" stroke-linecap="round"/>
</g>
		<g transform="matrix(0.1333 0 0 -0.1333 -42.0015 -862.0011)">
<path style="stroke: none; stroke-width: 1; stroke-dasharray: none; stroke-linecap: butt; stroke-dashoffset: 0; stroke-linejoin: miter; stroke-miterlimit: 4; is-custom-font: none; font-file-url: none; fill: rgb(255,255,0); fill-rule: nonzero; opacity: 1;" transform=" translate(-6825, -13605)" d="M 6780 13636 c 0 -3 20 -19 45 -36 c 25 -17 45 -29 45 -26 c 0 3 -20 19 -45 36 c -25 17 -45 29 -45 26 z" stroke-linecap="round"/>
</g>
		<g transform="matrix(0.1333 0 0 -0.1333 -28.6682 -852.6678)">
<path style="stroke: none; stroke-width: 1; stroke-dasharray: none; stroke-linecap: butt; stroke-dashoffset: 0; stroke-linejoin: miter; stroke-miterlimit: 4; is-custom-font: none; font-file-url: none; fill: rgb(255,255,0); fill-rule: nonzero; opacity: 1;" transform=" translate(-6925, -13535)" d="M 6880 13566 c 0 -3 20 -19 45 -36 c 25 -17 45 -29 45 -26 c 0 3 -20 19 -45 36 c -25 17 -45 29 -45 26 z" stroke-linecap="round"/>
</g>
		<g transform="matrix(0.1333 0 0 -0.1333 -15.3348 -843.3344)">
<path style="stroke: none; stroke-width: 1; stroke-dasharray: none; stroke-linecap: butt; stroke-dashoffset: 0; stroke-linejoin: miter; stroke-miterlimit: 4; is-custom-font: none; font-file-url: none; fill: rgb(255,255,0); fill-rule: nonzero; opacity: 1;" transform=" translate(-7025, -13465)" d="M 6980 13496 c 0 -3 20 -19 45 -36 c 25 -17 45 -29 45 -26 c 0 3 -20 19 -45 36 c -25 17 -45 29 -45 26 z" stroke-linecap="round"/>
</g>
		<g transform="matrix(0.1333 0 0 -0.1333 -2.0016 -834.0011)">
<path style="stroke: none; stroke-width: 1; stroke-dasharray: none; stroke-linecap: butt; stroke-dashoffset: 0; stroke-linejoin: miter; stroke-miterlimit: 4; is-custom-font: none; font-file-url: none; fill: rgb(255,255,0); fill-rule: nonzero; opacity: 1;" transform=" translate(-7125, -13395)" d="M 7080 13426 c 0 -3 20 -19 45 -36 c 25 -17 45 -29 45 -26 c 0 3 -20 19 -45 36 c -25 17 -45 29 -45 26 z" stroke-linecap="round"/>
</g>
		<g transform="matrix(0.1333 0 0 -0.1333 11.3318 -824.6678)">
<path style="stroke: none; stroke-width: 1; stroke-dasharray: none; stroke-linecap: butt; stroke-dashoffset: 0; stroke-linejoin: miter; stroke-miterlimit: 4; is-custom-font: none; font-file-url: none; fill: rgb(255,255,0); fill-rule: nonzero; opacity: 1;" transform=" translate(-7225, -13325)" d="M 7180 13356 c 0 -3 20 -19 45 -36 c 25 -17 45 -29 45 -26 c 0 3 -20 19 -45 36 c -25 17 -45 29 -45 26 z" stroke-linecap="round"/>
</g>
		<g transform="matrix(0.1333 0 0 -0.1333 169.2956 -714.0265)">
<path style="stroke: none; stroke-width: 1; stroke-dasharray: none; stroke-linecap: butt; stroke-dashoffset: 0; stroke-linejoin: miter; stroke-miterlimit: 4; is-custom-font: none; font-file-url: none; fill: rgb(255,255,0); fill-rule: nonzero; opacity: 1;" transform=" translate(-8410, -12495)" d="M 7290 13278 c 8 -9 512 -363 1120 -788 c 608 -425 1112 -777 1120 -783 c 13 -10 13 -9 0 5 c -8 9 -512 363 -1120 788 c -608 425 -1112 777 -1120 783 c -13 10 -13 9 0 -5 z" stroke-linecap="round"/>
</g>
		<g transform="matrix(0.1333 0 0 -0.1333 327.3319 -603.3344)">
<path style="stroke: none; stroke-width: 1; stroke-dasharray: none; stroke-linecap: butt; stroke-dashoffset: 0; stroke-linejoin: miter; stroke-miterlimit: 4; is-custom-font: none; font-file-url: none; fill: rgb(255,255,0); fill-rule: nonzero; opacity: 1;" transform=" translate(-9595, -11665)" d="M 9550 11696 c 0 -3 20 -19 45 -36 c 25 -17 45 -29 45 -26 c 0 3 -20 19 -45 36 c -25 17 -45 29 -45 26 z" stroke-linecap="round"/>
</g>
		<g transform="matrix(0.1333 0 0 -0.1333 340.6652 -594.0011)">
<path style="stroke: none; stroke-width: 1; stroke-dasharray: none; stroke-linecap: butt; stroke-dashoffset: 0; stroke-linejoin: miter; stroke-miterlimit: 4; is-custom-font: none; font-file-url: none; fill: rgb(255,255,0); fill-rule: nonzero; opacity: 1;" transform=" translate(-9695, -11595)" d="M 9650 11626 c 0 -3 20 -19 45 -36 c 25 -17 45 -29 45 -26 c 0 3 -20 19 -45 36 c -25 17 -45 29 -45 26 z" stroke-linecap="round"/>
</g>
		<g transform="matrix(0.1333 0 0 -0.1333 353.9984 -584.6678)">
<path style="stroke: none; stroke-width: 1; stroke-dasharray: none; stroke-linecap: butt; stroke-dashoffset: 0; stroke-linejoin: miter; stroke-miterlimit: 4; is-custom-font: none; font-file-url: none; fill: rgb(255,255,0); fill-rule: nonzero; opacity: 1;" transform=" translate(-9795, -11525)" d="M 9750 11556 c 0 -3 20 -19 45 -36 c 25 -17 45 -29 45 -26 c 0 3 -20 19 -45 36 c -25 17 -45 29 -45 26 z" stroke-linecap="round"/>
</g>
		<g transform="matrix(0.1333 0 0 -0.1333 367.3319 -575.3344)">
<path style="stroke: none; stroke-width: 1; stroke-dasharray: none; stroke-linecap: butt; stroke-dashoffset: 0; stroke-linejoin: miter; stroke-miterlimit: 4; is-custom-font: none; font-file-url: none; fill: rgb(255,255,0); fill-rule: nonzero; opacity: 1;" transform=" translate(-9895, -11455)" d="M 9850 11486 c 0 -3 20 -19 45 -36 c 25 -17 45 -29 45 -26 c 0 3 -20 19 -45 36 c -25 17 -45 29 -45 26 z" stroke-linecap="round"/>
</g>
		<g transform="matrix(0.1333 0 0 -0.1333 -435.3344 -567.3348)">
<path style="stroke: none; stroke-width: 1; stroke-dasharray: none; stroke-linecap: butt; stroke-dashoffset: 0; stroke-linejoin: miter; stroke-miterlimit: 4; is-custom-font: none; font-file-url: none; fill: rgb(255,255,0); fill-rule: nonzero; opacity: 1;" transform=" translate(-3875, -11395)" d="M 3870 11395 c -17 -25 -29 -45 -26 -45 c 3 0 19 20 36 45 c 17 25 29 45 26 45 c -3 0 -19 -20 -36 -45 z" stroke-linecap="round"/>
</g>
		<g transform="matrix(0.1333 0 0 -0.1333 380.6652 -566.0011)">
<path style="stroke: none; stroke-width: 1; stroke-dasharray: none; stroke-linecap: butt; stroke-dashoffset: 0; stroke-linejoin: miter; stroke-miterlimit: 4; is-custom-font: none; font-file-url: none; fill: rgb(255,255,0); fill-rule: nonzero; opacity: 1;" transform=" translate(-9995, -11385)" d="M 9950 11416 c 0 -3 20 -19 45 -36 c 25 -17 45 -29 45 -26 c 0 3 -20 19 -45 36 c -25 17 -45 29 -45 26 z" stroke-linecap="round"/>
</g>
		<g transform="matrix(0.1333 0 0 -0.1333 393.9984 -556.6678)">
<path style="stroke: none; stroke-width: 1; stroke-dasharray: none; stroke-linecap: butt; stroke-dashoffset: 0; stroke-linejoin: miter; stroke-miterlimit: 4; is-custom-font: none; font-file-url: none; fill: rgb(255,255,0); fill-rule: nonzero; opacity: 1;" transform=" translate(-10095, -11315)" d="M 10050 11346 c 0 -3 20 -19 45 -36 c 25 -17 45 -29 45 -26 c 0 3 -20 19 -45 36 c -25 17 -45 29 -45 26 z" stroke-linecap="round"/>
</g>
		<g transform="matrix(0.1333 0 0 -0.1333 -444.6678 -554.0015)">
<path style="stroke: none; stroke-width: 1; stroke-dasharray: none; stroke-linecap: butt; stroke-dashoffset: 0; stroke-linejoin: miter; stroke-miterlimit: 4; is-custom-font: none; font-file-url: none; fill: rgb(255,255,0); fill-rule: nonzero; opacity: 1;" transform=" translate(-3805, -11295)" d="M 3800 11295 c -17 -25 -29 -45 -26 -45 c 3 0 19 20 36 45 c 17 25 29 45 26 45 c -3 0 -19 -20 -36 -45 z" stroke-linecap="round"/>
</g>
		<g transform="matrix(0.1333 0 0 -0.1333 407.3319 -547.3344)">
<path style="stroke: none; stroke-width: 1; stroke-dasharray: none; stroke-linecap: butt; stroke-dashoffset: 0; stroke-linejoin: miter; stroke-miterlimit: 4; is-custom-font: none; font-file-url: none; fill: rgb(255,255,0); fill-rule: nonzero; opacity: 1;" transform=" translate(-10195, -11245)" d="M 10150 11276 c 0 -3 20 -19 45 -36 c 25 -17 45 -29 45 -26 c 0 3 -20 19 -45 36 c -25 17 -45 29 -45 26 z" stroke-linecap="round"/>
</g>
		<g transform="matrix(0.1333 0 0 -0.1333 -454.0011 -540.6681)">
<path style="stroke: none; stroke-width: 1; stroke-dasharray: none; stroke-linecap: butt; stroke-dashoffset: 0; stroke-linejoin: miter; stroke-miterlimit: 4; is-custom-font: none; font-file-url: none; fill: rgb(255,255,0); fill-rule: nonzero; opacity: 1;" transform=" translate(-3735, -11195)" d="M 3730 11195 c -17 -25 -29 -45 -26 -45 c 3 0 19 20 36 45 c 17 25 29 45 26 45 c -3 0 -19 -20 -36 -45 z" stroke-linecap="round"/>
</g>
		<g transform="matrix(0.1333 0 0 -0.1333 420.6652 -538.0011)">
<path style="stroke: none; stroke-width: 1; stroke-dasharray: none; stroke-linecap: butt; stroke-dashoffset: 0; stroke-linejoin: miter; stroke-miterlimit: 4; is-custom-font: none; font-file-url: none; fill: rgb(255,255,0); fill-rule: nonzero; opacity: 1;" transform=" translate(-10295, -11175)" d="M 10250 11206 c 0 -3 20 -19 45 -36 c 25 -17 45 -29 45 -26 c 0 3 -20 19 -45 36 c -25 17 -45 29 -45 26 z" stroke-linecap="round"/>
</g>
		<g transform="matrix(0.1333 0 0 -0.1333 -463.3344 -527.3348)">
<path style="stroke: none; stroke-width: 1; stroke-dasharray: none; stroke-linecap: butt; stroke-dashoffset: 0; stroke-linejoin: miter; stroke-miterlimit: 4; is-custom-font: none; font-file-url: none; fill: rgb(255,255,0); fill-rule: nonzero; opacity: 1;" transform=" translate(-3665, -11095)" d="M 3660 11095 c -17 -25 -29 -45 -26 -45 c 3 0 19 20 36 45 c 17 25 29 45 26 45 c -3 0 -19 -20 -36 -45 z" stroke-linecap="round"/>
</g>
		<g transform="matrix(0.1333 0 0 -0.1333 433.9984 -528.6678)">
<path style="stroke: none; stroke-width: 1; stroke-dasharray: none; stroke-linecap: butt; stroke-dashoffset: 0; stroke-linejoin: miter; stroke-miterlimit: 4; is-custom-font: none; font-file-url: none; fill: rgb(255,255,0); fill-rule: nonzero; opacity: 1;" transform=" translate(-10395, -11105)" d="M 10350 11136 c 0 -3 20 -19 45 -36 c 25 -17 45 -29 45 -26 c 0 3 -20 19 -45 36 c -25 17 -45 29 -45 26 z" stroke-linecap="round"/>
</g>
		<g transform="matrix(0.1333 0 0 -0.1333 447.3319 -519.3344)">
<path style="stroke: none; stroke-width: 1; stroke-dasharray: none; stroke-linecap: butt; stroke-dashoffset: 0; stroke-linejoin: miter; stroke-miterlimit: 4; is-custom-font: none; font-file-url: none; fill: rgb(255,255,0); fill-rule: nonzero; opacity: 1;" transform=" translate(-10495, -11035)" d="M 10450 11066 c 0 -3 20 -19 45 -36 c 25 -17 45 -29 45 -26 c 0 3 -20 19 -45 36 c -25 17 -45 29 -45 26 z" stroke-linecap="round"/>
</g>
		<g transform="matrix(0.1333 0 0 -0.1333 -472.6678 -514.0015)">
<path style="stroke: none; stroke-width: 1; stroke-dasharray: none; stroke-linecap: butt; stroke-dashoffset: 0; stroke-linejoin: miter; stroke-miterlimit: 4; is-custom-font: none; font-file-url: none; fill: rgb(255,255,0); fill-rule: nonzero; opacity: 1;" transform=" translate(-3595, -10995)" d="M 3590 10995 c -17 -25 -29 -45 -26 -45 c 3 0 19 20 36 45 c 17 25 29 45 26 45 c -3 0 -19 -20 -36 -45 z" stroke-linecap="round"/>
</g>
		<g transform="matrix(0.1333 0 0 -0.1333 460.6652 -510.0011)">
<path style="stroke: none; stroke-width: 1; stroke-dasharray: none; stroke-linecap: butt; stroke-dashoffset: 0; stroke-linejoin: miter; stroke-miterlimit: 4; is-custom-font: none; font-file-url: none; fill: rgb(255,255,0); fill-rule: nonzero; opacity: 1;" transform=" translate(-10595, -10965)" d="M 10550 10996 c 0 -3 20 -19 45 -36 c 25 -17 45 -29 45 -26 c 0 3 -20 19 -45 36 c -25 17 -45 29 -45 26 z" stroke-linecap="round"/>
</g>
		<g transform="matrix(0.1333 0 0 -0.1333 -482.0011 -500.6681)">
<path style="stroke: none; stroke-width: 1; stroke-dasharray: none; stroke-linecap: butt; stroke-dashoffset: 0; stroke-linejoin: miter; stroke-miterlimit: 4; is-custom-font: none; font-file-url: none; fill: rgb(255,255,0); fill-rule: nonzero; opacity: 1;" transform=" translate(-3525, -10895)" d="M 3520 10895 c -17 -25 -29 -45 -26 -45 c 3 0 19 20 36 45 c 17 25 29 45 26 45 c -3 0 -19 -20 -36 -45 z" stroke-linecap="round"/>
</g>
		<g transform="matrix(0.1333 0 0 -0.1333 473.9984 -500.6678)">
<path style="stroke: none; stroke-width: 1; stroke-dasharray: none; stroke-linecap: butt; stroke-dashoffset: 0; stroke-linejoin: miter; stroke-miterlimit: 4; is-custom-font: none; font-file-url: none; fill: rgb(255,255,0); fill-rule: nonzero; opacity: 1;" transform=" translate(-10695, -10895)" d="M 10650 10926 c 0 -3 20 -19 45 -36 c 25 -17 45 -29 45 -26 c 0 3 -20 19 -45 36 c -25 17 -45 29 -45 26 z" stroke-linecap="round"/>
</g>
		<g transform="matrix(0.1333 0 0 -0.1333 487.3319 -491.3344)">
<path style="stroke: none; stroke-width: 1; stroke-dasharray: none; stroke-linecap: butt; stroke-dashoffset: 0; stroke-linejoin: miter; stroke-miterlimit: 4; is-custom-font: none; font-file-url: none; fill: rgb(255,255,0); fill-rule: nonzero; opacity: 1;" transform=" translate(-10795, -10825)" d="M 10750 10856 c 0 -3 20 -19 45 -36 c 25 -17 45 -29 45 -26 c 0 3 -20 19 -45 36 c -25 17 -45 29 -45 26 z" stroke-linecap="round"/>
</g>
		<g transform="matrix(0.1333 0 0 -0.1333 -491.3344 -487.3348)">
<path style="stroke: none; stroke-width: 1; stroke-dasharray: none; stroke-linecap: butt; stroke-dashoffset: 0; stroke-linejoin: miter; stroke-miterlimit: 4; is-custom-font: none; font-file-url: none; fill: rgb(255,255,0); fill-rule: nonzero; opacity: 1;" transform=" translate(-3455, -10795)" d="M 3450 10795 c -17 -25 -29 -45 -26 -45 c 3 0 19 20 36 45 c 17 25 29 45 26 45 c -3 0 -19 -20 -36 -45 z" stroke-linecap="round"/>
</g>
		<g transform="matrix(0.1333 0 0 -0.1333 500.6652 -482.0011)">
<path style="stroke: none; stroke-width: 1; stroke-dasharray: none; stroke-linecap: butt; stroke-dashoffset: 0; stroke-linejoin: miter; stroke-miterlimit: 4; is-custom-font: none; font-file-url: none; fill: rgb(255,255,0); fill-rule: nonzero; opacity: 1;" transform=" translate(-10895, -10755)" d="M 10850 10786 c 0 -3 20 -19 45 -36 c 25 -17 45 -29 45 -26 c 0 3 -20 19 -45 36 c -25 17 -45 29 -45 26 z" stroke-linecap="round"/>
</g>
		<g transform="matrix(0.1333 0 0 -0.1333 201.0089 -288.767)">
<path style="stroke: none; stroke-width: 1; stroke-dasharray: none; stroke-linecap: butt; stroke-dashoffset: 0; stroke-linejoin: miter; stroke-miterlimit: 4; is-custom-font: none; font-file-url: none; fill: rgb(255,255,0); fill-rule: nonzero; opacity: 1;" transform=" translate(-8647.9371, -9305.3841)" d="M 9545 10729 l -120 -49 l -55 -80 c -39 -57 -59 -78 -70 -74 c -238 99 -398 117 -680 79 l -45 -6 l -23 49 c -49 109 -158 136 -286 73 c -92 -45 -154 -127 -171 -227 c -13 -79 -12 -78 -63 -26 c -198 203 -513 -85 -413 -376 l 18 -54 l -26 9 c -14 4 -55 8 -91 7 c -79 0 -140 -25 -204 -84 c -165 -152 -200 -395 -74 -506 c 37 -32 73 -47 141 -59 c 36 -6 37 -7 37 -48 c 0 -24 9 -60 20 -82 c 11 -22 20 -40 20 -41 c 0 -2 -24 -3 -52 -3 c -98 -1 -156 -28 -187 -89 c -29 -58 -35 -103 -17 -145 c 13 -32 19 -37 49 -37 c 50 0 235 -27 343 -51 c 222 -48 468 -148 610 -248 c 206 -145 394 -376 556 -687 c 69 -131 75 -139 105 -142 c 18 -2 49 6 72 17 c 88 46 120 136 84 243 l -19 57 l 65 4 c 36 2 75 7 87 11 c 17 6 23 1 39 -34 c 39 -86 124 -135 220 -127 c 78 6 144 38 216 105 c 137 126 182 345 93 451 c -15 18 -20 32 -14 36 c 5 3 14 4 19 1 c 15 -9 132 14 173 35 c 130 66 213 214 188 335 c -15 69 -65 128 -131 151 c -27 10 -49 20 -49 23 c 0 3 17 15 38 27 c 139 80 209 227 172 363 c -21 79 -104 140 -192 140 c -23 0 -28 5 -33 38 c -15 88 -57 228 -90 300 c -47 100 -85 160 -163 254 l -64 78 l 55 78 l 55 78 l 7 142 c 7 135 6 142 -11 141 c -11 0 -73 -23 -139 -50 z m -560 -472 c 44 -15 89 -33 99 -40 c 19 -14 19 -15 0 -39 l -18 -25 l -91 20 c -134 29 -378 29 -499 -1 c -387 -96 -580 -351 -655 -867 l -17 -120 l -32 -3 c -31 -3 -32 -2 -32 35 c 1 117 53 380 103 511 c 78 209 209 353 412 454 c 164 82 289 108 495 104 c 135 -3 166 -7 235 -29 z m -62 -169 c 42 -6 77 -12 77 -13 c 0 -2 -49 -42 -110 -89 c -142 -113 -271 -235 -308 -294 c -41 -64 -92 -191 -138 -342 c -34 -112 -46 -136 -112 -232 c -41 -60 -78 -108 -83 -108 c -4 0 -43 17 -87 38 c -44 21 -121 52 -172 68 l -92 29 l 6 70 c 20 252 108 513 214 638 c 177 209 440 285 805 235 z m 500 -126 c 64 -76 141 -234 174 -357 c 23 -88 26 -119 26 -260 c 0 -134 -3 -173 -21 -239 c -79 -288 -263 -476 -646 -664 c -84 -41 -91 -43 -103 -26 c -7 10 -13 23 -13 30 c 0 7 39 33 88 59 c 205 109 402 264 482 380 c 98 142 135 283 127 480 c -7 186 -58 347 -167 529 c -50 82 -51 85 -35 110 c 9 14 22 22 28 20 c 7 -3 34 -31 60 -62 z m -107 -160 c 79 -147 134 -344 134 -482 c 0 -100 -26 -208 -72 -300 c -75 -149 -243 -297 -490 -428 c -53 -29 -103 -52 -110 -52 c -8 0 -22 13 -31 30 c -10 16 -65 79 -123 139 c -58 61 -104 114 -102 119 c 1 4 34 52 72 107 c 55 79 85 111 143 153 c 111 81 257 206 297 255 c 48 59 113 200 176 385 c 29 83 56 152 59 152 c 3 0 25 -35 47 -78 z" stroke-linecap="round"/>
</g>
		<g transform="matrix(0.1333 0 0 -0.1333 -500.6678 -474.0016)">
<path style="stroke: none; stroke-width: 1; stroke-dasharray: none; stroke-linecap: butt; stroke-dashoffset: 0; stroke-linejoin: miter; stroke-miterlimit: 4; is-custom-font: none; font-file-url: none; fill: rgb(255,255,0); fill-rule: nonzero; opacity: 1;" transform=" translate(-3385, -10695)" d="M 3380 10695 c -17 -25 -29 -45 -26 -45 c 3 0 19 20 36 45 c 17 25 29 45 26 45 c -3 0 -19 -20 -36 -45 z" stroke-linecap="round"/>
</g>
		<g transform="matrix(0.1333 0 0 -0.1333 513.9984 -472.6678)">
<path style="stroke: none; stroke-width: 1; stroke-dasharray: none; stroke-linecap: butt; stroke-dashoffset: 0; stroke-linejoin: miter; stroke-miterlimit: 4; is-custom-font: none; font-file-url: none; fill: rgb(255,255,0); fill-rule: nonzero; opacity: 1;" transform=" translate(-10995, -10685)" d="M 10950 10716 c 0 -3 20 -19 45 -36 c 25 -17 45 -29 45 -26 c 0 3 -20 19 -45 36 c -25 17 -45 29 -45 26 z" stroke-linecap="round"/>
</g>
		<g transform="matrix(0.1333 0 0 -0.1333 527.3319 -463.3344)">
<path style="stroke: none; stroke-width: 1; stroke-dasharray: none; stroke-linecap: butt; stroke-dashoffset: 0; stroke-linejoin: miter; stroke-miterlimit: 4; is-custom-font: none; font-file-url: none; fill: rgb(255,255,0); fill-rule: nonzero; opacity: 1;" transform=" translate(-11095, -10615)" d="M 11050 10646 c 0 -3 20 -19 45 -36 c 25 -17 45 -29 45 -26 c 0 3 -20 19 -45 36 c -25 17 -45 29 -45 26 z" stroke-linecap="round"/>
</g>
		<g transform="matrix(0.1333 0 0 -0.1333 -510.0011 -460.6681)">
<path style="stroke: none; stroke-width: 1; stroke-dasharray: none; stroke-linecap: butt; stroke-dashoffset: 0; stroke-linejoin: miter; stroke-miterlimit: 4; is-custom-font: none; font-file-url: none; fill: rgb(255,255,0); fill-rule: nonzero; opacity: 1;" transform=" translate(-3315, -10595)" d="M 3310 10595 c -17 -25 -29 -45 -26 -45 c 3 0 19 20 36 45 c 17 25 29 45 26 45 c -3 0 -19 -20 -36 -45 z" stroke-linecap="round"/>
</g>
		<g transform="matrix(0.1333 0 0 -0.1333 540.6652 -454.0011)">
<path style="stroke: none; stroke-width: 1; stroke-dasharray: none; stroke-linecap: butt; stroke-dashoffset: 0; stroke-linejoin: miter; stroke-miterlimit: 4; is-custom-font: none; font-file-url: none; fill: rgb(255,255,0); fill-rule: nonzero; opacity: 1;" transform=" translate(-11195, -10545)" d="M 11150 10576 c 0 -3 20 -19 45 -36 c 25 -17 45 -29 45 -26 c 0 3 -20 19 -45 36 c -25 17 -45 29 -45 26 z" stroke-linecap="round"/>
</g>
		<g transform="matrix(0.1333 0 0 -0.1333 -519.3344 -447.3348)">
<path style="stroke: none; stroke-width: 1; stroke-dasharray: none; stroke-linecap: butt; stroke-dashoffset: 0; stroke-linejoin: miter; stroke-miterlimit: 4; is-custom-font: none; font-file-url: none; fill: rgb(255,255,0); fill-rule: nonzero; opacity: 1;" transform=" translate(-3245, -10495)" d="M 3240 10495 c -17 -25 -29 -45 -26 -45 c 3 0 19 20 36 45 c 17 25 29 45 26 45 c -3 0 -19 -20 -36 -45 z" stroke-linecap="round"/>
</g>
		<g transform="matrix(0.1333 0 0 -0.1333 553.9985 -444.6678)">
<path style="stroke: none; stroke-width: 1; stroke-dasharray: none; stroke-linecap: butt; stroke-dashoffset: 0; stroke-linejoin: miter; stroke-miterlimit: 4; is-custom-font: none; font-file-url: none; fill: rgb(255,255,0); fill-rule: nonzero; opacity: 1;" transform=" translate(-11295, -10475)" d="M 11250 10506 c 0 -3 20 -19 45 -36 c 25 -17 45 -29 45 -26 c 0 3 -20 19 -45 36 c -25 17 -45 29 -45 26 z" stroke-linecap="round"/>
</g>
		<g transform="matrix(0.1333 0 0 -0.1333 -528.6678 -434.0016)">
<path style="stroke: none; stroke-width: 1; stroke-dasharray: none; stroke-linecap: butt; stroke-dashoffset: 0; stroke-linejoin: miter; stroke-miterlimit: 4; is-custom-font: none; font-file-url: none; fill: rgb(255,255,0); fill-rule: nonzero; opacity: 1;" transform=" translate(-3175, -10395)" d="M 3170 10395 c -17 -25 -29 -45 -26 -45 c 3 0 19 20 36 45 c 17 25 29 45 26 45 c -3 0 -19 -20 -36 -45 z" stroke-linecap="round"/>
</g>
		<g transform="matrix(0.1333 0 0 -0.1333 567.3319 -435.3344)">
<path style="stroke: none; stroke-width: 1; stroke-dasharray: none; stroke-linecap: butt; stroke-dashoffset: 0; stroke-linejoin: miter; stroke-miterlimit: 4; is-custom-font: none; font-file-url: none; fill: rgb(255,255,0); fill-rule: nonzero; opacity: 1;" transform=" translate(-11395, -10405)" d="M 11350 10436 c 0 -3 20 -19 45 -36 c 25 -17 45 -29 45 -26 c 0 3 -20 19 -45 36 c -25 17 -45 29 -45 26 z" stroke-linecap="round"/>
</g>
		<g transform="matrix(0.1333 0 0 -0.1333 580.6652 -426.0011)">
<path style="stroke: none; stroke-width: 1; stroke-dasharray: none; stroke-linecap: butt; stroke-dashoffset: 0; stroke-linejoin: miter; stroke-miterlimit: 4; is-custom-font: none; font-file-url: none; fill: rgb(255,255,0); fill-rule: nonzero; opacity: 1;" transform=" translate(-11495, -10335)" d="M 11450 10366 c 0 -3 20 -19 45 -36 c 25 -17 45 -29 45 -26 c 0 3 -20 19 -45 36 c -25 17 -45 29 -45 26 z" stroke-linecap="round"/>
</g>
		<g transform="matrix(0.1333 0 0 -0.1333 -538.0011 -420.6681)">
<path style="stroke: none; stroke-width: 1; stroke-dasharray: none; stroke-linecap: butt; stroke-dashoffset: 0; stroke-linejoin: miter; stroke-miterlimit: 4; is-custom-font: none; font-file-url: none; fill: rgb(255,255,0); fill-rule: nonzero; opacity: 1;" transform=" translate(-3105, -10295)" d="M 3100 10295 c -17 -25 -29 -45 -26 -45 c 3 0 19 20 36 45 c 17 25 29 45 26 45 c -3 0 -19 -20 -36 -45 z" stroke-linecap="round"/>
</g>
		<g transform="matrix(0.1333 0 0 -0.1333 593.9985 -416.6678)">
<path style="stroke: none; stroke-width: 1; stroke-dasharray: none; stroke-linecap: butt; stroke-dashoffset: 0; stroke-linejoin: miter; stroke-miterlimit: 4; is-custom-font: none; font-file-url: none; fill: rgb(255,255,0); fill-rule: nonzero; opacity: 1;" transform=" translate(-11595, -10265)" d="M 11550 10296 c 0 -3 20 -19 45 -36 c 25 -17 45 -29 45 -26 c 0 3 -20 19 -45 36 c -25 17 -45 29 -45 26 z" stroke-linecap="round"/>
</g>
		<g transform="matrix(0.1333 0 0 -0.1333 -547.3344 -407.3348)">
<path style="stroke: none; stroke-width: 1; stroke-dasharray: none; stroke-linecap: butt; stroke-dashoffset: 0; stroke-linejoin: miter; stroke-miterlimit: 4; is-custom-font: none; font-file-url: none; fill: rgb(255,255,0); fill-rule: nonzero; opacity: 1;" transform=" translate(-3035, -10195)" d="M 3030 10195 c -17 -25 -29 -45 -26 -45 c 3 0 19 20 36 45 c 17 25 29 45 26 45 c -3 0 -19 -20 -36 -45 z" stroke-linecap="round"/>
</g>
		<g transform="matrix(0.1333 0 0 -0.1333 607.3319 -407.3344)">
<path style="stroke: none; stroke-width: 1; stroke-dasharray: none; stroke-linecap: butt; stroke-dashoffset: 0; stroke-linejoin: miter; stroke-miterlimit: 4; is-custom-font: none; font-file-url: none; fill: rgb(255,255,0); fill-rule: nonzero; opacity: 1;" transform=" translate(-11695, -10195)" d="M 11650 10226 c 0 -3 20 -19 45 -36 c 25 -17 45 -29 45 -26 c 0 3 -20 19 -45 36 c -25 17 -45 29 -45 26 z" stroke-linecap="round"/>
</g>
		<g transform="matrix(0.1333 0 0 -0.1333 620.6652 -398.0011)">
<path style="stroke: none; stroke-width: 1; stroke-dasharray: none; stroke-linecap: butt; stroke-dashoffset: 0; stroke-linejoin: miter; stroke-miterlimit: 4; is-custom-font: none; font-file-url: none; fill: rgb(255,255,0); fill-rule: nonzero; opacity: 1;" transform=" translate(-11795, -10125)" d="M 11750 10156 c 0 -3 20 -19 45 -36 c 25 -17 45 -29 45 -26 c 0 3 -20 19 -45 36 c -25 17 -45 29 -45 26 z" stroke-linecap="round"/>
</g>
		<g transform="matrix(0.1333 0 0 -0.1333 -556.6678 -394.0016)">
<path style="stroke: none; stroke-width: 1; stroke-dasharray: none; stroke-linecap: butt; stroke-dashoffset: 0; stroke-linejoin: miter; stroke-miterlimit: 4; is-custom-font: none; font-file-url: none; fill: rgb(255,255,0); fill-rule: nonzero; opacity: 1;" transform=" translate(-2965, -10095)" d="M 2960 10095 c -17 -25 -29 -45 -26 -45 c 3 0 19 20 36 45 c 17 25 29 45 26 45 c -3 0 -19 -20 -36 -45 z" stroke-linecap="round"/>
</g>
		<g transform="matrix(0.1333 0 0 -0.1333 633.9985 -388.6678)">
<path style="stroke: none; stroke-width: 1; stroke-dasharray: none; stroke-linecap: butt; stroke-dashoffset: 0; stroke-linejoin: miter; stroke-miterlimit: 4; is-custom-font: none; font-file-url: none; fill: rgb(255,255,0); fill-rule: nonzero; opacity: 1;" transform=" translate(-11895, -10055)" d="M 11850 10086 c 0 -3 20 -19 45 -36 c 25 -17 45 -29 45 -26 c 0 3 -20 19 -45 36 c -25 17 -45 29 -45 26 z" stroke-linecap="round"/>
</g>
		<g transform="matrix(0.1333 0 0 -0.1333 -566.0011 -380.6681)">
<path style="stroke: none; stroke-width: 1; stroke-dasharray: none; stroke-linecap: butt; stroke-dashoffset: 0; stroke-linejoin: miter; stroke-miterlimit: 4; is-custom-font: none; font-file-url: none; fill: rgb(255,255,0); fill-rule: nonzero; opacity: 1;" transform=" translate(-2895, -9995)" d="M 2890 9995 c -17 -25 -29 -45 -26 -45 c 3 0 19 20 36 45 c 17 25 29 45 26 45 c -3 0 -19 -20 -36 -45 z" stroke-linecap="round"/>
</g>
		<g transform="matrix(0.1333 0 0 -0.1333 647.3319 -379.3344)">
<path style="stroke: none; stroke-width: 1; stroke-dasharray: none; stroke-linecap: butt; stroke-dashoffset: 0; stroke-linejoin: miter; stroke-miterlimit: 4; is-custom-font: none; font-file-url: none; fill: rgb(255,255,0); fill-rule: nonzero; opacity: 1;" transform=" translate(-11995, -9985)" d="M 11950 10016 c 0 -3 20 -19 45 -36 c 25 -17 45 -29 45 -26 c 0 3 -20 19 -45 36 c -25 17 -45 29 -45 26 z" stroke-linecap="round"/>
</g>
		<g transform="matrix(0.1333 0 0 -0.1333 660.6652 -370.0011)">
<path style="stroke: none; stroke-width: 1; stroke-dasharray: none; stroke-linecap: butt; stroke-dashoffset: 0; stroke-linejoin: miter; stroke-miterlimit: 4; is-custom-font: none; font-file-url: none; fill: rgb(255,255,0); fill-rule: nonzero; opacity: 1;" transform=" translate(-12095, -9915)" d="M 12050 9946 c 0 -3 20 -19 45 -36 c 25 -17 45 -29 45 -26 c 0 3 -20 19 -45 36 c -25 17 -45 29 -45 26 z" stroke-linecap="round"/>
</g>
		<g transform="matrix(0.1333 0 0 -0.1333 -575.3344 -367.3348)">
<path style="stroke: none; stroke-width: 1; stroke-dasharray: none; stroke-linecap: butt; stroke-dashoffset: 0; stroke-linejoin: miter; stroke-miterlimit: 4; is-custom-font: none; font-file-url: none; fill: rgb(255,255,0); fill-rule: nonzero; opacity: 1;" transform=" translate(-2825, -9895)" d="M 2820 9895 c -17 -25 -29 -45 -26 -45 c 3 0 19 20 36 45 c 17 25 29 45 26 45 c -3 0 -19 -20 -36 -45 z" stroke-linecap="round"/>
</g>
		<g transform="matrix(0.1333 0 0 -0.1333 809.4383 -265.8113)">
<path style="stroke: none; stroke-width: 1; stroke-dasharray: none; stroke-linecap: butt; stroke-dashoffset: 0; stroke-linejoin: miter; stroke-miterlimit: 4; is-custom-font: none; font-file-url: none; fill: rgb(255,255,0); fill-rule: nonzero; opacity: 1;" transform=" translate(-13211.0522, -9133.3988)" d="M 12160 9868 c 14 -14 2067 -1454 2101 -1473 c 56 -32 -126 97 -1031 730 c -1158 810 -1090 763 -1070 743 z" stroke-linecap="round"/>
</g>
		<g transform="matrix(0.1333 0 0 -0.1333 -584.6678 -354.0016)">
<path style="stroke: none; stroke-width: 1; stroke-dasharray: none; stroke-linecap: butt; stroke-dashoffset: 0; stroke-linejoin: miter; stroke-miterlimit: 4; is-custom-font: none; font-file-url: none; fill: rgb(255,255,0); fill-rule: nonzero; opacity: 1;" transform=" translate(-2755, -9795)" d="M 2750 9795 c -17 -25 -29 -45 -26 -45 c 3 0 19 20 36 45 c 17 25 29 45 26 45 c -3 0 -19 -20 -36 -45 z" stroke-linecap="round"/>
</g>
		<g transform="matrix(0.1333 0 0 -0.1333 -594.0011 -340.6681)">
<path style="stroke: none; stroke-width: 1; stroke-dasharray: none; stroke-linecap: butt; stroke-dashoffset: 0; stroke-linejoin: miter; stroke-miterlimit: 4; is-custom-font: none; font-file-url: none; fill: rgb(255,255,0); fill-rule: nonzero; opacity: 1;" transform=" translate(-2685, -9695)" d="M 2680 9695 c -17 -25 -29 -45 -26 -45 c 3 0 19 20 36 45 c 17 25 29 45 26 45 c -3 0 -19 -20 -36 -45 z" stroke-linecap="round"/>
</g>
		<g transform="matrix(0.1333 0 0 -0.1333 -603.3344 -327.3348)">
<path style="stroke: none; stroke-width: 1; stroke-dasharray: none; stroke-linecap: butt; stroke-dashoffset: 0; stroke-linejoin: miter; stroke-miterlimit: 4; is-custom-font: none; font-file-url: none; fill: rgb(255,255,0); fill-rule: nonzero; opacity: 1;" transform=" translate(-2615, -9595)" d="M 2610 9595 c -17 -25 -29 -45 -26 -45 c 3 0 19 20 36 45 c 17 25 29 45 26 45 c -3 0 -19 -20 -36 -45 z" stroke-linecap="round"/>
</g>
		<g transform="matrix(0.1333 0 0 -0.1333 -742.1156 -129.3977)">
<path style="stroke: none; stroke-width: 1; stroke-dasharray: none; stroke-linecap: butt; stroke-dashoffset: 0; stroke-linejoin: miter; stroke-miterlimit: 4; is-custom-font: none; font-file-url: none; fill: rgb(255,255,0); fill-rule: nonzero; opacity: 1;" transform=" translate(-1574.3842, -8110.125)" d="M 1579 8123 c -545 -780 -996 -1425 -1002 -1433 c -10 -13 -9 -13 5 0 c 9 8 458 647 998 1420 c 541 773 987 1411 993 1418 c 5 6 7 12 4 12 c -3 0 -452 -638 -998 -1417 z" stroke-linecap="round"/>
</g>
		<g transform="matrix(0.1333 0 0 -0.1333 21.216 -183.6392)">
<path style="stroke: none; stroke-width: 1; stroke-dasharray: none; stroke-linecap: butt; stroke-dashoffset: 0; stroke-linejoin: miter; stroke-miterlimit: 4; is-custom-font: none; font-file-url: none; fill: rgb(255,255,0); fill-rule: nonzero; opacity: 1;" transform=" translate(-7299.1824, -8517.2029)" d="M 7165 8874 c -75 -26 -115 -93 -115 -196 c 0 -80 13 -123 91 -309 l 62 -146 l 97 -11 c 54 -6 129 -23 166 -36 c 38 -14 69 -24 70 -23 c 2 1 6 88 10 192 c 7 208 0 275 -42 356 c -58 115 -239 208 -339 173 z" stroke-linecap="round"/>
</g>
		<g transform="matrix(0.1333 0 0 -0.1333 110.189 -152.9633)">
<path style="stroke: none; stroke-width: 1; stroke-dasharray: none; stroke-linecap: butt; stroke-dashoffset: 0; stroke-linejoin: miter; stroke-miterlimit: 4; is-custom-font: none; font-file-url: none; fill: rgb(255,255,0); fill-rule: nonzero; opacity: 1;" transform=" translate(-7966.5, -8287.1368)" d="M 7831 8621 c -68 -28 -117 -75 -150 -144 c -28 -58 -31 -72 -37 -218 l -6 -156 l 31 -11 c 43 -15 129 -74 174 -118 l 37 -37 l 136 53 c 150 59 205 98 252 178 c 23 41 27 58 27 127 c 0 70 -4 89 -33 149 c -50 107 -89 148 -158 171 c -85 27 -217 30 -273 6 z" stroke-linecap="round"/>
</g>
		<g transform="matrix(0.1333 0 0 -0.1333 54.6856 -77.9049)">
<path style="stroke: none; stroke-width: 1; stroke-dasharray: none; stroke-linecap: butt; stroke-dashoffset: 0; stroke-linejoin: miter; stroke-miterlimit: 4; is-custom-font: none; font-file-url: none; fill: rgb(255,255,0); fill-rule: nonzero; opacity: 1;" transform=" translate(-7550.2724, -7724.1857)" d="M 7119 8118 c -53 -14 -81 -48 -86 -105 c -8 -77 9 -90 141 -108 c 125 -17 279 -67 362 -116 c 121 -72 235 -202 320 -366 c 26 -48 51 -91 58 -95 c 33 -22 111 3 140 44 c 35 50 8 177 -65 301 c -131 222 -365 389 -621 442 c -77 17 -194 18 -249 3 z" stroke-linecap="round"/>
</g>
		<g transform="matrix(0.1333 0 0 -0.1333 163.3768 -86.3618)">
<path style="stroke: none; stroke-width: 1; stroke-dasharray: none; stroke-linecap: butt; stroke-dashoffset: 0; stroke-linejoin: miter; stroke-miterlimit: 4; is-custom-font: none; font-file-url: none; fill: rgb(255,255,0); fill-rule: nonzero; opacity: 1;" transform=" translate(-8365.4277, -7787.6557)" d="M 8375 8014 c -77 -20 -396 -143 -414 -160 c -2 -2 17 -26 41 -53 c 33 -36 123 -191 133 -228 c 2 -8 123 -15 268 -16 c 187 -2 222 6 292 58 c 37 29 75 97 75 136 c 0 71 -85 176 -189 232 c -50 28 -156 44 -206 31 z" stroke-linecap="round"/>
</g>
		<g transform="matrix(0.1333 0 0 -0.1333 0.2503 0.1304)">
<path style="stroke: none; stroke-width: 1; stroke-dasharray: none; stroke-linecap: butt; stroke-dashoffset: 0; stroke-linejoin: miter; stroke-miterlimit: 4; is-custom-font: none; font-file-url: none; fill: rgb(255,255,0); fill-rule: nonzero; opacity: 1;" transform=" translate(-7142.0513, -7138.8527)" d="M 6935 7802 c -195 -51 -341 -167 -424 -336 c -50 -104 -65 -169 -65 -286 c 1 -306 197 -573 504 -685 c 100 -36 279 -46 392 -21 c 309 69 513 339 495 655 c -10 187 -77 331 -217 471 c -93 94 -186 149 -315 190 c -99 31 -274 37 -370 12 z" stroke-linecap="round"/>
</g>
		<g transform="matrix(0.1333 0 0 -0.1333 -54.2537 77.872)">
<path style="stroke: none; stroke-width: 1; stroke-dasharray: none; stroke-linecap: butt; stroke-dashoffset: 0; stroke-linejoin: miter; stroke-miterlimit: 4; is-custom-font: none; font-file-url: none; fill: rgb(255,255,0); fill-rule: nonzero; opacity: 1;" transform=" translate(-6733.2281, -6555.8582)" d="M 6284 6946 c -43 -19 -74 -62 -74 -103 c 0 -51 44 -172 92 -255 c 59 -101 209 -249 313 -309 c 166 -96 296 -133 457 -127 c 125 4 154 18 176 86 c 12 37 12 46 -5 79 c -18 38 -18 38 -108 51 c -210 29 -382 97 -489 194 c -77 68 -167 190 -221 299 c -52 103 -72 115 -141 85 z" stroke-linecap="round"/>
</g>
		<g transform="matrix(0.1333 0 0 -0.1333 -163.0265 86.2766)">
<path style="stroke: none; stroke-width: 1; stroke-dasharray: none; stroke-linecap: butt; stroke-dashoffset: 0; stroke-linejoin: miter; stroke-miterlimit: 4; is-custom-font: none; font-file-url: none; fill: rgb(255,255,0); fill-rule: nonzero; opacity: 1;" transform=" translate(-5917.4007, -6492.867)" d="M 5770 6724 c -130 -22 -191 -53 -230 -117 c -44 -72 -15 -175 72 -251 c 102 -89 208 -115 334 -83 c 60 16 351 133 368 148 c 5 5 -7 26 -30 51 c -22 24 -62 86 -89 139 l -49 97 l -101 6 c -187 12 -250 14 -275 10 z" stroke-linecap="round"/>
</g>
		<g transform="matrix(0.1333 0 0 -0.1333 -880.6678 68.6651)">
<path style="stroke: none; stroke-width: 1; stroke-dasharray: none; stroke-linecap: butt; stroke-dashoffset: 0; stroke-linejoin: miter; stroke-miterlimit: 4; is-custom-font: none; font-file-url: none; fill: rgb(255,255,0); fill-rule: nonzero; opacity: 1;" transform=" translate(-535, -6625)" d="M 530 6625 c -17 -25 -29 -45 -26 -45 c 3 0 19 20 36 45 c 17 25 29 45 26 45 c -3 0 -19 -20 -36 -45 z" stroke-linecap="round"/>
</g>
		<g transform="matrix(0.1333 0 0 -0.1333 -890.0011 81.9985)">
<path style="stroke: none; stroke-width: 1; stroke-dasharray: none; stroke-linecap: butt; stroke-dashoffset: 0; stroke-linejoin: miter; stroke-miterlimit: 4; is-custom-font: none; font-file-url: none; fill: rgb(255,255,0); fill-rule: nonzero; opacity: 1;" transform=" translate(-465, -6525)" d="M 460 6525 c -17 -25 -29 -45 -26 -45 c 3 0 19 20 36 45 c 17 25 29 45 26 45 c -3 0 -19 -20 -36 -45 z" stroke-linecap="round"/>
</g>
		<g transform="matrix(0.1333 0 0 -0.1333 -899.3344 95.3319)">
<path style="stroke: none; stroke-width: 1; stroke-dasharray: none; stroke-linecap: butt; stroke-dashoffset: 0; stroke-linejoin: miter; stroke-miterlimit: 4; is-custom-font: none; font-file-url: none; fill: rgb(255,255,0); fill-rule: nonzero; opacity: 1;" transform=" translate(-395, -6425)" d="M 390 6425 c -17 -25 -29 -45 -26 -45 c 3 0 19 20 36 45 c 17 25 29 45 26 45 c -3 0 -19 -20 -36 -45 z" stroke-linecap="round"/>
</g>
		<g transform="matrix(0.1333 0 0 -0.1333 -200.2456 289.3212)">
<path style="stroke: none; stroke-width: 1; stroke-dasharray: none; stroke-linecap: butt; stroke-dashoffset: 0; stroke-linejoin: miter; stroke-miterlimit: 4; is-custom-font: none; font-file-url: none; fill: rgb(255,255,0); fill-rule: nonzero; opacity: 1;" transform=" translate(-5638.5284, -4969.721)" d="M 5360 6434 c -42 -18 -77 -49 -96 -86 c -18 -35 -18 -125 1 -178 c 8 -23 15 -44 15 -45 c 0 -1 -22 0 -48 3 c -30 2 -61 -2 -85 -11 l -37 -16 l -25 48 c -49 98 -150 146 -252 122 c -196 -47 -354 -276 -314 -455 c 7 -30 23 -71 37 -91 c 13 -20 24 -37 24 -39 c 0 -2 -31 -6 -70 -8 c -164 -12 -303 -143 -318 -300 c -9 -106 41 -184 142 -223 l 45 -17 l -57 -38 c -113 -73 -164 -162 -164 -285 c 0 -117 60 -189 167 -203 c 49 -6 60 -11 63 -27 c 20 -140 87 -328 152 -432 c 44 -70 135 -185 151 -191 c 19 -7 7 -35 -46 -111 l -55 -79 l 0 -141 c 0 -77 3 -141 8 -140 c 4 0 63 24 132 52 l 124 52 l 54 75 c 62 87 56 85 186 40 c 186 -64 362 -74 581 -34 c 28 5 32 1 58 -48 c 38 -74 83 -103 161 -103 c 146 0 264 107 299 272 c 6 29 14 53 18 53 c 4 0 18 -15 33 -34 c 14 -19 45 -43 69 -55 c 119 -58 263 12 338 164 c 28 56 32 75 31 142 c 0 45 -7 96 -16 122 c -9 24 -16 45 -16 47 c 0 2 14 -2 30 -8 c 46 -16 148 -6 202 20 c 172 84 278 310 222 475 c -28 81 -92 131 -185 145 l -52 7 l -2 45 c -1 25 -10 60 -19 77 c -9 18 -16 36 -16 40 c 0 4 27 9 61 9 c 84 2 145 35 176 94 c 25 49 30 109 12 143 c -17 31 -28 37 -72 37 c -65 0 -288 38 -410 70 c -406 105 -670 290 -909 635 c -73 105 -185 301 -213 372 c -22 54 -52 64 -115 37 z m 84 -599 c 5 -17 -6 -26 -66 -55 c -185 -91 -372 -227 -464 -339 c -63 -76 -126 -197 -151 -291 c -28 -104 -24 -308 9 -431 c 33 -123 77 -228 139 -330 c 27 -45 49 -87 49 -93 c 0 -6 -7 -20 -15 -30 c -15 -19 -16 -19 -51 15 c -91 87 -177 260 -216 431 c -31 138 -29 330 5 460 c 72 276 251 464 622 651 c 115 58 125 59 139 12 z m 106 -142 c 18 -25 75 -89 126 -142 l 92 -96 l -78 -110 c -51 -73 -94 -122 -126 -144 c -90 -64 -250 -199 -299 -253 c -61 -67 -119 -188 -186 -388 c -28 -85 -55 -158 -59 -163 c -10 -11 -98 162 -130 259 c -40 117 -52 190 -51 309 c 0 116 17 191 66 290 c 77 159 250 307 520 444 c 44 22 83 41 86 41 c 3 0 21 -21 39 -47 z m 558 -457 c 38 -19 117 -51 175 -72 l 106 -36 l -5 -47 c -20 -175 -56 -336 -104 -459 c -104 -270 -335 -427 -660 -448 c -92 -7 -289 10 -319 26 c -9 5 23 36 105 102 c 153 122 248 210 286 266 c 43 62 101 202 149 359 c 36 120 48 144 112 238 c 40 57 75 104 78 105 c 4 0 38 -16 77 -34 z m 419 -142 c 21 -6 22 -10 17 -63 c -35 -339 -112 -570 -242 -729 c -94 -114 -300 -239 -466 -282 c -209 -53 -422 -48 -587 16 c -64 25 -72 34 -49 62 l 19 23 l 83 -18 c 117 -25 415 -26 508 0 c 167 46 286 111 385 212 c 139 142 213 317 265 632 c 28 170 23 159 67 147 z" stroke-linecap="round"/>
</g>
		<g transform="matrix(0.1333 0 0 -0.1333 -908.6678 108.6651)">
<path style="stroke: none; stroke-width: 1; stroke-dasharray: none; stroke-linecap: butt; stroke-dashoffset: 0; stroke-linejoin: miter; stroke-miterlimit: 4; is-custom-font: none; font-file-url: none; fill: rgb(255,255,0); fill-rule: nonzero; opacity: 1;" transform=" translate(-325, -6325)" d="M 320 6325 c -17 -25 -29 -45 -26 -45 c 3 0 19 20 36 45 c 17 25 29 45 26 45 c -3 0 -19 -20 -36 -45 z" stroke-linecap="round"/>
</g>
		<g transform="matrix(0.1333 0 0 -0.1333 -110.2443 153.5244)">
<path style="stroke: none; stroke-width: 1; stroke-dasharray: none; stroke-linecap: butt; stroke-dashoffset: 0; stroke-linejoin: miter; stroke-miterlimit: 4; is-custom-font: none; font-file-url: none; fill: rgb(255,255,0); fill-rule: nonzero; opacity: 1;" transform=" translate(-6313.25, -5988.479)" d="M 6258 6283 c -153 -62 -207 -103 -249 -191 c -30 -62 -30 -155 0 -233 c 27 -71 94 -165 129 -183 c 45 -23 134 -40 202 -39 c 126 2 209 53 262 161 c 33 65 33 69 36 222 l 2 155 l -60 29 c -33 16 -87 53 -119 83 c -33 29 -61 53 -63 53 c -1 -1 -65 -26 -140 -57 z" stroke-linecap="round"/>
</g>
		<g transform="matrix(0.1333 0 0 -0.1333 -918.0011 121.9985)">
<path style="stroke: none; stroke-width: 1; stroke-dasharray: none; stroke-linecap: butt; stroke-dashoffset: 0; stroke-linejoin: miter; stroke-miterlimit: 4; is-custom-font: none; font-file-url: none; fill: rgb(255,255,0); fill-rule: nonzero; opacity: 1;" transform=" translate(-255, -6225)" d="M 250 6225 c -17 -25 -29 -45 -26 -45 c 3 0 19 20 36 45 c 17 25 29 45 26 45 c -3 0 -19 -20 -36 -45 z" stroke-linecap="round"/>
</g>
		<g transform="matrix(0.1333 0 0 -0.1333 -927.3344 135.3318)">
<path style="stroke: none; stroke-width: 1; stroke-dasharray: none; stroke-linecap: butt; stroke-dashoffset: 0; stroke-linejoin: miter; stroke-miterlimit: 4; is-custom-font: none; font-file-url: none; fill: rgb(255,255,0); fill-rule: nonzero; opacity: 1;" transform=" translate(-185, -6125)" d="M 180 6125 c -17 -25 -29 -45 -26 -45 c 3 0 19 20 36 45 c 17 25 29 45 26 45 c -3 0 -19 -20 -36 -45 z" stroke-linecap="round"/>
</g>
		<g transform="matrix(0.1333 0 0 -0.1333 -20.8503 184.1654)">
<path style="stroke: none; stroke-width: 1; stroke-dasharray: none; stroke-linecap: butt; stroke-dashoffset: 0; stroke-linejoin: miter; stroke-miterlimit: 4; is-custom-font: none; font-file-url: none; fill: rgb(255,255,0); fill-rule: nonzero; opacity: 1;" transform=" translate(-6983.6851, -5758.6681)" d="M 6748 6092 c -3 -20 -6 -81 -7 -134 c -1 -53 -4 -108 -7 -122 c -2 -14 0 -65 6 -113 c 16 -148 75 -233 204 -296 c 121 -60 216 -39 266 59 c 20 39 25 63 24 119 c -1 83 -7 105 -91 301 l -64 151 l -82 7 c -84 7 -171 28 -218 52 c -26 13 -27 13 -31 -24 z" stroke-linecap="round"/>
</g>
		<g transform="matrix(0.1333 0 0 -0.1333 -936.6678 148.6651)">
<path style="stroke: none; stroke-width: 1; stroke-dasharray: none; stroke-linecap: butt; stroke-dashoffset: 0; stroke-linejoin: miter; stroke-miterlimit: 4; is-custom-font: none; font-file-url: none; fill: rgb(255,255,0); fill-rule: nonzero; opacity: 1;" transform=" translate(-115, -6025)" d="M 110 6025 c -17 -25 -29 -45 -26 -45 c 3 0 19 20 36 45 c 17 25 29 45 26 45 c -3 0 -19 -20 -36 -45 z" stroke-linecap="round"/>
</g>
		<g transform="matrix(0.1333 0 0 -0.1333 -809.302 260.4857)">
<path style="stroke: none; stroke-width: 1; stroke-dasharray: none; stroke-linecap: butt; stroke-dashoffset: 0; stroke-linejoin: miter; stroke-miterlimit: 4; is-custom-font: none; font-file-url: none; fill: rgb(255,255,0); fill-rule: nonzero; opacity: 1;" transform=" translate(-1070.5, -5186.1612)" d="M 41 5926 l -30 -44 l 1012 -708 c 557 -389 1033 -723 1060 -742 c 26 -19 47 -31 47 -28 c 0 3 -465 330 -1032 727 c -568 397 -1042 730 -1052 740 c -19 18 -19 19 7 58 c 37 55 26 52 -12 -3 z" stroke-linecap="round"/>
</g>
		<g transform="matrix(0.1333 0 0 -0.1333 -660.6681 369.9989)">
<path style="stroke: none; stroke-width: 1; stroke-dasharray: none; stroke-linecap: butt; stroke-dashoffset: 0; stroke-linejoin: miter; stroke-miterlimit: 4; is-custom-font: none; font-file-url: none; fill: rgb(255,255,0); fill-rule: nonzero; opacity: 1;" transform=" translate(-2185, -4365)" d="M 2140 4396 c 0 -3 20 -19 45 -36 c 25 -17 45 -29 45 -26 c 0 3 -20 19 -45 36 c -25 17 -45 29 -45 26 z" stroke-linecap="round"/>
</g>
		<g transform="matrix(0.1333 0 0 -0.1333 -647.3348 379.3322)">
<path style="stroke: none; stroke-width: 1; stroke-dasharray: none; stroke-linecap: butt; stroke-dashoffset: 0; stroke-linejoin: miter; stroke-miterlimit: 4; is-custom-font: none; font-file-url: none; fill: rgb(255,255,0); fill-rule: nonzero; opacity: 1;" transform=" translate(-2285, -4295)" d="M 2240 4326 c 0 -3 20 -19 45 -36 c 25 -17 45 -29 45 -26 c 0 3 -20 19 -45 36 c -25 17 -45 29 -45 26 z" stroke-linecap="round"/>
</g>
		<g transform="matrix(0.1333 0 0 -0.1333 -634.0015 388.6656)">
<path style="stroke: none; stroke-width: 1; stroke-dasharray: none; stroke-linecap: butt; stroke-dashoffset: 0; stroke-linejoin: miter; stroke-miterlimit: 4; is-custom-font: none; font-file-url: none; fill: rgb(255,255,0); fill-rule: nonzero; opacity: 1;" transform=" translate(-2385, -4225)" d="M 2340 4256 c 0 -3 20 -19 45 -36 c 25 -17 45 -29 45 -26 c 0 3 -20 19 -45 36 c -25 17 -45 29 -45 26 z" stroke-linecap="round"/>
</g>
		<g transform="matrix(0.1333 0 0 -0.1333 -620.6681 397.9989)">
<path style="stroke: none; stroke-width: 1; stroke-dasharray: none; stroke-linecap: butt; stroke-dashoffset: 0; stroke-linejoin: miter; stroke-miterlimit: 4; is-custom-font: none; font-file-url: none; fill: rgb(255,255,0); fill-rule: nonzero; opacity: 1;" transform=" translate(-2485, -4155)" d="M 2440 4186 c 0 -3 20 -19 45 -36 c 25 -17 45 -29 45 -26 c 0 3 -20 19 -45 36 c -25 17 -45 29 -45 26 z" stroke-linecap="round"/>
</g>
		<g transform="matrix(0.1333 0 0 -0.1333 -607.3348 407.3322)">
<path style="stroke: none; stroke-width: 1; stroke-dasharray: none; stroke-linecap: butt; stroke-dashoffset: 0; stroke-linejoin: miter; stroke-miterlimit: 4; is-custom-font: none; font-file-url: none; fill: rgb(255,255,0); fill-rule: nonzero; opacity: 1;" transform=" translate(-2585, -4085)" d="M 2540 4116 c 0 -3 20 -19 45 -36 c 25 -17 45 -29 45 -26 c 0 3 -20 19 -45 36 c -25 17 -45 29 -45 26 z" stroke-linecap="round"/>
</g>
		<g transform="matrix(0.1333 0 0 -0.1333 -594.0015 416.6656)">
<path style="stroke: none; stroke-width: 1; stroke-dasharray: none; stroke-linecap: butt; stroke-dashoffset: 0; stroke-linejoin: miter; stroke-miterlimit: 4; is-custom-font: none; font-file-url: none; fill: rgb(255,255,0); fill-rule: nonzero; opacity: 1;" transform=" translate(-2685, -4015)" d="M 2640 4046 c 0 -3 20 -19 45 -36 c 25 -17 45 -29 45 -26 c 0 3 -20 19 -45 36 c -25 17 -45 29 -45 26 z" stroke-linecap="round"/>
</g>
		<g transform="matrix(0.1333 0 0 -0.1333 -580.6681 425.9989)">
<path style="stroke: none; stroke-width: 1; stroke-dasharray: none; stroke-linecap: butt; stroke-dashoffset: 0; stroke-linejoin: miter; stroke-miterlimit: 4; is-custom-font: none; font-file-url: none; fill: rgb(255,255,0); fill-rule: nonzero; opacity: 1;" transform=" translate(-2785, -3945)" d="M 2740 3976 c 0 -3 20 -19 45 -36 c 25 -17 45 -29 45 -26 c 0 3 -20 19 -45 36 c -25 17 -45 29 -45 26 z" stroke-linecap="round"/>
</g>
		<g transform="matrix(0.1333 0 0 -0.1333 -567.3348 435.3322)">
<path style="stroke: none; stroke-width: 1; stroke-dasharray: none; stroke-linecap: butt; stroke-dashoffset: 0; stroke-linejoin: miter; stroke-miterlimit: 4; is-custom-font: none; font-file-url: none; fill: rgb(255,255,0); fill-rule: nonzero; opacity: 1;" transform=" translate(-2885, -3875)" d="M 2840 3906 c 0 -3 20 -19 45 -36 c 25 -17 45 -29 45 -26 c 0 3 -20 19 -45 36 c -25 17 -45 29 -45 26 z" stroke-linecap="round"/>
</g>
		<g transform="matrix(0.1333 0 0 -0.1333 -554.0015 444.6656)">
<path style="stroke: none; stroke-width: 1; stroke-dasharray: none; stroke-linecap: butt; stroke-dashoffset: 0; stroke-linejoin: miter; stroke-miterlimit: 4; is-custom-font: none; font-file-url: none; fill: rgb(255,255,0); fill-rule: nonzero; opacity: 1;" transform=" translate(-2985, -3805)" d="M 2940 3836 c 0 -3 20 -19 45 -36 c 25 -17 45 -29 45 -26 c 0 3 -20 19 -45 36 c -25 17 -45 29 -45 26 z" stroke-linecap="round"/>
</g>
		<g transform="matrix(0.1333 0 0 -0.1333 -540.6681 453.9989)">
<path style="stroke: none; stroke-width: 1; stroke-dasharray: none; stroke-linecap: butt; stroke-dashoffset: 0; stroke-linejoin: miter; stroke-miterlimit: 4; is-custom-font: none; font-file-url: none; fill: rgb(255,255,0); fill-rule: nonzero; opacity: 1;" transform=" translate(-3085, -3735)" d="M 3040 3766 c 0 -3 20 -19 45 -36 c 25 -17 45 -29 45 -26 c 0 3 -20 19 -45 36 c -25 17 -45 29 -45 26 z" stroke-linecap="round"/>
</g>
		<g transform="matrix(0.1333 0 0 -0.1333 -527.3348 463.3322)">
<path style="stroke: none; stroke-width: 1; stroke-dasharray: none; stroke-linecap: butt; stroke-dashoffset: 0; stroke-linejoin: miter; stroke-miterlimit: 4; is-custom-font: none; font-file-url: none; fill: rgb(255,255,0); fill-rule: nonzero; opacity: 1;" transform=" translate(-3185, -3665)" d="M 3140 3696 c 0 -3 20 -19 45 -36 c 25 -17 45 -29 45 -26 c 0 3 -20 19 -45 36 c -25 17 -45 29 -45 26 z" stroke-linecap="round"/>
</g>
		<g transform="matrix(0.1333 0 0 -0.1333 -514.0015 472.6656)">
<path style="stroke: none; stroke-width: 1; stroke-dasharray: none; stroke-linecap: butt; stroke-dashoffset: 0; stroke-linejoin: miter; stroke-miterlimit: 4; is-custom-font: none; font-file-url: none; fill: rgb(255,255,0); fill-rule: nonzero; opacity: 1;" transform=" translate(-3285, -3595)" d="M 3240 3626 c 0 -3 20 -19 45 -36 c 25 -17 45 -29 45 -26 c 0 3 -20 19 -45 36 c -25 17 -45 29 -45 26 z" stroke-linecap="round"/>
</g>
		<g transform="matrix(0.1333 0 0 -0.1333 -500.6681 481.9989)">
<path style="stroke: none; stroke-width: 1; stroke-dasharray: none; stroke-linecap: butt; stroke-dashoffset: 0; stroke-linejoin: miter; stroke-miterlimit: 4; is-custom-font: none; font-file-url: none; fill: rgb(255,255,0); fill-rule: nonzero; opacity: 1;" transform=" translate(-3385, -3525)" d="M 3340 3556 c 0 -3 20 -19 45 -36 c 25 -17 45 -29 45 -26 c 0 3 -20 19 -45 36 c -25 17 -45 29 -45 26 z" stroke-linecap="round"/>
</g>
		<g transform="matrix(0.1333 0 0 -0.1333 -487.3348 491.3322)">
<path style="stroke: none; stroke-width: 1; stroke-dasharray: none; stroke-linecap: butt; stroke-dashoffset: 0; stroke-linejoin: miter; stroke-miterlimit: 4; is-custom-font: none; font-file-url: none; fill: rgb(255,255,0); fill-rule: nonzero; opacity: 1;" transform=" translate(-3485, -3455)" d="M 3440 3486 c 0 -3 20 -19 45 -36 c 25 -17 45 -29 45 -26 c 0 3 -20 19 -45 36 c -25 17 -45 29 -45 26 z" stroke-linecap="round"/>
</g>
		<g transform="matrix(0.1333 0 0 -0.1333 -474.0016 500.6656)">
<path style="stroke: none; stroke-width: 1; stroke-dasharray: none; stroke-linecap: butt; stroke-dashoffset: 0; stroke-linejoin: miter; stroke-miterlimit: 4; is-custom-font: none; font-file-url: none; fill: rgb(255,255,0); fill-rule: nonzero; opacity: 1;" transform=" translate(-3585, -3385)" d="M 3540 3416 c 0 -3 20 -19 45 -36 c 25 -17 45 -29 45 -26 c 0 3 -20 19 -45 36 c -25 17 -45 29 -45 26 z" stroke-linecap="round"/>
</g>
		<g transform="matrix(0.1333 0 0 -0.1333 -460.6681 509.9989)">
<path style="stroke: none; stroke-width: 1; stroke-dasharray: none; stroke-linecap: butt; stroke-dashoffset: 0; stroke-linejoin: miter; stroke-miterlimit: 4; is-custom-font: none; font-file-url: none; fill: rgb(255,255,0); fill-rule: nonzero; opacity: 1;" transform=" translate(-3685, -3315)" d="M 3640 3346 c 0 -3 20 -19 45 -36 c 25 -17 45 -29 45 -26 c 0 3 -20 19 -45 36 c -25 17 -45 29 -45 26 z" stroke-linecap="round"/>
</g>
		<g transform="matrix(0.1333 0 0 -0.1333 -447.3348 519.3322)">
<path style="stroke: none; stroke-width: 1; stroke-dasharray: none; stroke-linecap: butt; stroke-dashoffset: 0; stroke-linejoin: miter; stroke-miterlimit: 4; is-custom-font: none; font-file-url: none; fill: rgb(255,255,0); fill-rule: nonzero; opacity: 1;" transform=" translate(-3785, -3245)" d="M 3740 3276 c 0 -3 20 -19 45 -36 c 25 -17 45 -29 45 -26 c 0 3 -20 19 -45 36 c -25 17 -45 29 -45 26 z" stroke-linecap="round"/>
</g>
		<g transform="matrix(0.1333 0 0 -0.1333 -434.0016 528.6656)">
<path style="stroke: none; stroke-width: 1; stroke-dasharray: none; stroke-linecap: butt; stroke-dashoffset: 0; stroke-linejoin: miter; stroke-miterlimit: 4; is-custom-font: none; font-file-url: none; fill: rgb(255,255,0); fill-rule: nonzero; opacity: 1;" transform=" translate(-3885, -3175)" d="M 3840 3206 c 0 -3 20 -19 45 -36 c 25 -17 45 -29 45 -26 c 0 3 -20 19 -45 36 c -25 17 -45 29 -45 26 z" stroke-linecap="round"/>
</g>
		<g transform="matrix(0.1333 0 0 -0.1333 -420.6681 537.9989)">
<path style="stroke: none; stroke-width: 1; stroke-dasharray: none; stroke-linecap: butt; stroke-dashoffset: 0; stroke-linejoin: miter; stroke-miterlimit: 4; is-custom-font: none; font-file-url: none; fill: rgb(255,255,0); fill-rule: nonzero; opacity: 1;" transform=" translate(-3985, -3105)" d="M 3940 3136 c 0 -3 20 -19 45 -36 c 25 -17 45 -29 45 -26 c 0 3 -20 19 -45 36 c -25 17 -45 29 -45 26 z" stroke-linecap="round"/>
</g>
		<g transform="matrix(0.1333 0 0 -0.1333 -407.3348 547.3322)">
<path style="stroke: none; stroke-width: 1; stroke-dasharray: none; stroke-linecap: butt; stroke-dashoffset: 0; stroke-linejoin: miter; stroke-miterlimit: 4; is-custom-font: none; font-file-url: none; fill: rgb(255,255,0); fill-rule: nonzero; opacity: 1;" transform=" translate(-4085, -3035)" d="M 4040 3066 c 0 -3 20 -19 45 -36 c 25 -17 45 -29 45 -26 c 0 3 -20 19 -45 36 c -25 17 -45 29 -45 26 z" stroke-linecap="round"/>
</g>
		<g transform="matrix(0.1333 0 0 -0.1333 -394.0016 556.6656)">
<path style="stroke: none; stroke-width: 1; stroke-dasharray: none; stroke-linecap: butt; stroke-dashoffset: 0; stroke-linejoin: miter; stroke-miterlimit: 4; is-custom-font: none; font-file-url: none; fill: rgb(255,255,0); fill-rule: nonzero; opacity: 1;" transform=" translate(-4185, -2965)" d="M 4140 2996 c 0 -3 20 -19 45 -36 c 25 -17 45 -29 45 -26 c 0 3 -20 19 -45 36 c -25 17 -45 29 -45 26 z" stroke-linecap="round"/>
</g>
		<g transform="matrix(0.1333 0 0 -0.1333 -380.6681 565.9989)">
<path style="stroke: none; stroke-width: 1; stroke-dasharray: none; stroke-linecap: butt; stroke-dashoffset: 0; stroke-linejoin: miter; stroke-miterlimit: 4; is-custom-font: none; font-file-url: none; fill: rgb(255,255,0); fill-rule: nonzero; opacity: 1;" transform=" translate(-4285, -2895)" d="M 4240 2926 c 0 -3 20 -19 45 -36 c 25 -17 45 -29 45 -26 c 0 3 -20 19 -45 36 c -25 17 -45 29 -45 26 z" stroke-linecap="round"/>
</g>
		<g transform="matrix(0.1333 0 0 -0.1333 -367.3348 575.3322)">
<path style="stroke: none; stroke-width: 1; stroke-dasharray: none; stroke-linecap: butt; stroke-dashoffset: 0; stroke-linejoin: miter; stroke-miterlimit: 4; is-custom-font: none; font-file-url: none; fill: rgb(255,255,0); fill-rule: nonzero; opacity: 1;" transform=" translate(-4385, -2825)" d="M 4340 2856 c 0 -3 20 -19 45 -36 c 25 -17 45 -29 45 -26 c 0 3 -20 19 -45 36 c -25 17 -45 29 -45 26 z" stroke-linecap="round"/>
</g>
		<g transform="matrix(0.1333 0 0 -0.1333 -354.0016 584.6656)">
<path style="stroke: none; stroke-width: 1; stroke-dasharray: none; stroke-linecap: butt; stroke-dashoffset: 0; stroke-linejoin: miter; stroke-miterlimit: 4; is-custom-font: none; font-file-url: none; fill: rgb(255,255,0); fill-rule: nonzero; opacity: 1;" transform=" translate(-4485, -2755)" d="M 4440 2786 c 0 -3 20 -19 45 -36 c 25 -17 45 -29 45 -26 c 0 3 -20 19 -45 36 c -25 17 -45 29 -45 26 z" stroke-linecap="round"/>
</g>
		<g transform="matrix(0.1333 0 0 -0.1333 -340.6681 593.9989)">
<path style="stroke: none; stroke-width: 1; stroke-dasharray: none; stroke-linecap: butt; stroke-dashoffset: 0; stroke-linejoin: miter; stroke-miterlimit: 4; is-custom-font: none; font-file-url: none; fill: rgb(255,255,0); fill-rule: nonzero; opacity: 1;" transform=" translate(-4585, -2685)" d="M 4540 2716 c 0 -3 20 -19 45 -36 c 25 -17 45 -29 45 -26 c 0 3 -20 19 -45 36 c -25 17 -45 29 -45 26 z" stroke-linecap="round"/>
</g>
		<g transform="matrix(0.1333 0 0 -0.1333 -327.3348 603.3322)">
<path style="stroke: none; stroke-width: 1; stroke-dasharray: none; stroke-linecap: butt; stroke-dashoffset: 0; stroke-linejoin: miter; stroke-miterlimit: 4; is-custom-font: none; font-file-url: none; fill: rgb(255,255,0); fill-rule: nonzero; opacity: 1;" transform=" translate(-4685, -2615)" d="M 4640 2646 c 0 -3 20 -19 45 -36 c 25 -17 45 -29 45 -26 c 0 3 -20 19 -45 36 c -25 17 -45 29 -45 26 z" stroke-linecap="round"/>
</g>
		<g transform="matrix(0.1333 0 0 -0.1333 -169.371 713.9735)">
<path style="stroke: none; stroke-width: 1; stroke-dasharray: none; stroke-linecap: butt; stroke-dashoffset: 0; stroke-linejoin: miter; stroke-miterlimit: 4; is-custom-font: none; font-file-url: none; fill: rgb(255,255,0); fill-rule: nonzero; opacity: 1;" transform=" translate(-5870, -1785)" d="M 4750 2568 c 8 -9 512 -363 1120 -788 c 608 -425 1112 -777 1120 -783 c 13 -10 13 -9 0 5 c -8 9 -512 363 -1120 788 c -608 425 -1112 777 -1120 783 c -13 10 -13 9 0 -5 z" stroke-linecap="round"/>
</g>
		<g transform="matrix(0.1333 0 0 -0.1333 -11.3348 824.6656)">
<path style="stroke: none; stroke-width: 1; stroke-dasharray: none; stroke-linecap: butt; stroke-dashoffset: 0; stroke-linejoin: miter; stroke-miterlimit: 4; is-custom-font: none; font-file-url: none; fill: rgb(255,255,0); fill-rule: nonzero; opacity: 1;" transform=" translate(-7055, -955)" d="M 7010 986 c 0 -3 20 -19 45 -36 c 25 -17 45 -29 45 -26 c 0 3 -20 19 -45 36 c -25 17 -45 29 -45 26 z" stroke-linecap="round"/>
</g>
		<g transform="matrix(0.1333 0 0 -0.1333 1.9985 833.9989)">
<path style="stroke: none; stroke-width: 1; stroke-dasharray: none; stroke-linecap: butt; stroke-dashoffset: 0; stroke-linejoin: miter; stroke-miterlimit: 4; is-custom-font: none; font-file-url: none; fill: rgb(255,255,0); fill-rule: nonzero; opacity: 1;" transform=" translate(-7155, -885)" d="M 7110 916 c 0 -3 20 -19 45 -36 c 25 -17 45 -29 45 -26 c 0 3 -20 19 -45 36 c -25 17 -45 29 -45 26 z" stroke-linecap="round"/>
</g>
		<g transform="matrix(0.1333 0 0 -0.1333 15.3318 843.3322)">
<path style="stroke: none; stroke-width: 1; stroke-dasharray: none; stroke-linecap: butt; stroke-dashoffset: 0; stroke-linejoin: miter; stroke-miterlimit: 4; is-custom-font: none; font-file-url: none; fill: rgb(255,255,0); fill-rule: nonzero; opacity: 1;" transform=" translate(-7255, -815)" d="M 7210 846 c 0 -3 20 -19 45 -36 c 25 -17 45 -29 45 -26 c 0 3 -20 19 -45 36 c -25 17 -45 29 -45 26 z" stroke-linecap="round"/>
</g>
		<g transform="matrix(0.1333 0 0 -0.1333 28.6652 852.6656)">
<path style="stroke: none; stroke-width: 1; stroke-dasharray: none; stroke-linecap: butt; stroke-dashoffset: 0; stroke-linejoin: miter; stroke-miterlimit: 4; is-custom-font: none; font-file-url: none; fill: rgb(255,255,0); fill-rule: nonzero; opacity: 1;" transform=" translate(-7355, -745)" d="M 7310 776 c 0 -3 20 -19 45 -36 c 25 -17 45 -29 45 -26 c 0 3 -20 19 -45 36 c -25 17 -45 29 -45 26 z" stroke-linecap="round"/>
</g>
		<g transform="matrix(0.1333 0 0 -0.1333 41.9985 861.9989)">
<path style="stroke: none; stroke-width: 1; stroke-dasharray: none; stroke-linecap: butt; stroke-dashoffset: 0; stroke-linejoin: miter; stroke-miterlimit: 4; is-custom-font: none; font-file-url: none; fill: rgb(255,255,0); fill-rule: nonzero; opacity: 1;" transform=" translate(-7455, -675)" d="M 7410 706 c 0 -3 20 -19 45 -36 c 25 -17 45 -29 45 -26 c 0 3 -20 19 -45 36 c -25 17 -45 29 -45 26 z" stroke-linecap="round"/>
</g>
		<g transform="matrix(0.1333 0 0 -0.1333 55.3319 871.3322)">
<path style="stroke: none; stroke-width: 1; stroke-dasharray: none; stroke-linecap: butt; stroke-dashoffset: 0; stroke-linejoin: miter; stroke-miterlimit: 4; is-custom-font: none; font-file-url: none; fill: rgb(255,255,0); fill-rule: nonzero; opacity: 1;" transform=" translate(-7555, -605)" d="M 7510 636 c 0 -3 20 -19 45 -36 c 25 -17 45 -29 45 -26 c 0 3 -20 19 -45 36 c -25 17 -45 29 -45 26 z" stroke-linecap="round"/>
</g>
		<g transform="matrix(0.1333 0 0 -0.1333 68.6651 880.6656)">
<path style="stroke: none; stroke-width: 1; stroke-dasharray: none; stroke-linecap: butt; stroke-dashoffset: 0; stroke-linejoin: miter; stroke-miterlimit: 4; is-custom-font: none; font-file-url: none; fill: rgb(255,255,0); fill-rule: nonzero; opacity: 1;" transform=" translate(-7655, -535)" d="M 7610 566 c 0 -3 20 -19 45 -36 c 25 -17 45 -29 45 -26 c 0 3 -20 19 -45 36 c -25 17 -45 29 -45 26 z" stroke-linecap="round"/>
</g>
		<g transform="matrix(0.1333 0 0 -0.1333 81.9985 889.9989)">
<path style="stroke: none; stroke-width: 1; stroke-dasharray: none; stroke-linecap: butt; stroke-dashoffset: 0; stroke-linejoin: miter; stroke-miterlimit: 4; is-custom-font: none; font-file-url: none; fill: rgb(255,255,0); fill-rule: nonzero; opacity: 1;" transform=" translate(-7755, -465)" d="M 7710 496 c 0 -3 20 -19 45 -36 c 25 -17 45 -29 45 -26 c 0 3 -20 19 -45 36 c -25 17 -45 29 -45 26 z" stroke-linecap="round"/>
</g>
		<g transform="matrix(0.1333 0 0 -0.1333 95.3319 899.3322)">
<path style="stroke: none; stroke-width: 1; stroke-dasharray: none; stroke-linecap: butt; stroke-dashoffset: 0; stroke-linejoin: miter; stroke-miterlimit: 4; is-custom-font: none; font-file-url: none; fill: rgb(255,255,0); fill-rule: nonzero; opacity: 1;" transform=" translate(-7855, -395)" d="M 7810 426 c 0 -3 20 -19 45 -36 c 25 -17 45 -29 45 -26 c 0 3 -20 19 -45 36 c -25 17 -45 29 -45 26 z" stroke-linecap="round"/>
</g>
		<g transform="matrix(0.1333 0 0 -0.1333 108.6651 908.6656)">
<path style="stroke: none; stroke-width: 1; stroke-dasharray: none; stroke-linecap: butt; stroke-dashoffset: 0; stroke-linejoin: miter; stroke-miterlimit: 4; is-custom-font: none; font-file-url: none; fill: rgb(255,255,0); fill-rule: nonzero; opacity: 1;" transform=" translate(-7955, -325)" d="M 7910 356 c 0 -3 20 -19 45 -36 c 25 -17 45 -29 45 -26 c 0 3 -20 19 -45 36 c -25 17 -45 29 -45 26 z" stroke-linecap="round"/>
</g>
		<g transform="matrix(0.1333 0 0 -0.1333 121.9985 917.9989)">
<path style="stroke: none; stroke-width: 1; stroke-dasharray: none; stroke-linecap: butt; stroke-dashoffset: 0; stroke-linejoin: miter; stroke-miterlimit: 4; is-custom-font: none; font-file-url: none; fill: rgb(255,255,0); fill-rule: nonzero; opacity: 1;" transform=" translate(-8055, -255)" d="M 8010 286 c 0 -3 20 -19 45 -36 c 25 -17 45 -29 45 -26 c 0 3 -20 19 -45 36 c -25 17 -45 29 -45 26 z" stroke-linecap="round"/>
</g>
		<g transform="matrix(0.1333 0 0 -0.1333 135.3318 927.3322)">
<path style="stroke: none; stroke-width: 1; stroke-dasharray: none; stroke-linecap: butt; stroke-dashoffset: 0; stroke-linejoin: miter; stroke-miterlimit: 4; is-custom-font: none; font-file-url: none; fill: rgb(255,255,0); fill-rule: nonzero; opacity: 1;" transform=" translate(-8155, -185)" d="M 8110 216 c 0 -3 20 -19 45 -36 c 25 -17 45 -29 45 -26 c 0 3 -20 19 -45 36 c -25 17 -45 29 -45 26 z" stroke-linecap="round"/>
</g>
		<g transform="matrix(0.1333 0 0 -0.1333 148.6651 936.6656)">
<path style="stroke: none; stroke-width: 1; stroke-dasharray: none; stroke-linecap: butt; stroke-dashoffset: 0; stroke-linejoin: miter; stroke-miterlimit: 4; is-custom-font: none; font-file-url: none; fill: rgb(255,255,0); fill-rule: nonzero; opacity: 1;" transform=" translate(-8255, -115)" d="M 8210 146 c 0 -3 20 -19 45 -36 c 25 -17 45 -29 45 -26 c 0 3 -20 19 -45 36 c -25 17 -45 29 -45 26 z" stroke-linecap="round"/>
</g>
		<g transform="matrix(0.1333 0 0 -0.1333 161.9984 945.9989)">
<path style="stroke: none; stroke-width: 1; stroke-dasharray: none; stroke-linecap: butt; stroke-dashoffset: 0; stroke-linejoin: miter; stroke-miterlimit: 4; is-custom-font: none; font-file-url: none; fill: rgb(255,255,0); fill-rule: nonzero; opacity: 1;" transform=" translate(-8355, -45)" d="M 8310 76 c 0 -3 20 -19 45 -36 c 25 -17 45 -29 45 -26 c 0 3 -20 19 -45 36 c -25 17 -45 29 -45 26 z" stroke-linecap="round"/>
</g>
</g>
</g>
</svg>