<?xml version="1.0" standalone="no"?>
<!DOCTYPE svg PUBLIC "-//W3C//DTD SVG 20010904//EN"
 "http://www.w3.org/TR/2001/REC-SVG-20010904/DTD/svg10.dtd">
<svg version="1.0" xmlns="http://www.w3.org/2000/svg"
 width="1024.000000pt" height="1024.000000pt" viewBox="0 0 1024.000000 1024.000000"
 preserveAspectRatio="xMidYMid meet">

<g transform="translate(0.000000,1024.000000) scale(0.100000,-0.100000)"
fill="#FFFF00" stroke="none">
<path d="M0 5120 l0 -5120 5123 2 5122 3 -5117 2 -5118 3 0 5110 0 5110 5118
3 5117 2 -5122 3 -5123 2 0 -5120z"/>
<path d="M5041 9451 l-81 -120 0 -98 0 -98 -77 -18 c-185 -42 -359 -140 -512
-286 l-53 -52 -51 26 c-123 61 -242 3 -298 -145 -28 -75 -23 -173 14 -254 15
-32 27 -60 27 -61 0 -1 -27 4 -60 12 -264 60 -380 -322 -158 -522 27 -25 54
-45 59 -45 5 0 9 -4 9 -10 0 -5 -7 -10 -15 -10 -26 0 -88 -36 -122 -72 -18
-18 -45 -60 -60 -93 -25 -54 -28 -70 -28 -170 1 -131 21 -195 87 -270 77 -87
174 -108 277 -60 57 27 56 27 82 -17 5 -10 30 -29 54 -44 l45 -26 -40 -29
c-22 -16 -53 -48 -70 -71 -25 -34 -30 -51 -30 -96 0 -64 27 -120 70 -146 29
-16 30 -16 127 38 200 111 430 197 633 237 157 32 360 31 510 0 208 -44 521
-166 677 -264 49 -31 76 -26 111 18 72 91 43 216 -64 285 l-45 28 36 17 c19
10 51 35 69 57 l33 39 51 -26 c203 -102 409 126 362 402 -20 124 -109 243
-191 260 -16 3 -29 9 -29 12 0 4 19 21 43 37 179 127 180 439 3 531 -35 18
-126 20 -168 4 -16 -6 -28 -9 -28 -7 0 1 12 31 27 67 35 85 38 192 6 260 -24
54 -85 124 -124 145 -45 23 -115 18 -170 -12 l-48 -27 -69 65 c-142 134 -310
229 -484 273 l-93 23 -3 102 -3 102 -71 106 c-39 59 -74 111 -78 116 -5 4 -45
-46 -89 -113z m-71 -725 c0 -32 -3 -34 -77 -66 -151 -63 -301 -166 -408 -281
-221 -236 -271 -529 -150 -869 15 -41 56 -135 92 -208 36 -74 63 -135 61 -136
-1 -2 -13 -9 -26 -15 -31 -16 -34 -12 -121 164 -156 313 -192 522 -131 745 87
312 363 595 665 681 89 26 95 25 95 -15z m425 7 c239 -74 477 -291 591 -538
92 -200 99 -430 17 -659 -26 -73 -136 -306 -172 -364 -20 -31 -22 -32 -49 -18
l-28 15 61 124 c79 160 141 345 157 470 46 364 -191 711 -609 892 -75 33 -78
36 -81 71 -3 36 -3 36 30 29 18 -3 56 -13 83 -22z m-439 -160 c-133 -446 -140
-511 -82 -735 19 -73 46 -166 60 -207 23 -66 26 -91 26 -211 l0 -137 -58 -7
c-46 -5 -207 -44 -303 -73 -12 -3 -32 27 -82 129 -125 250 -173 449 -148 610
38 247 201 446 495 604 91 49 100 51 92 27z m417 -24 c123 -62 218 -132 310
-229 91 -95 154 -205 182 -315 21 -84 19 -232 -5 -331 -41 -174 -179 -471
-216 -467 -11 1 -69 15 -129 32 -61 16 -139 33 -173 37 l-62 7 0 129 c0 121 2
136 34 232 48 143 87 299 93 377 7 80 -20 220 -82 427 -23 78 -40 142 -38 142
2 0 40 -19 86 -41z"/>
<path d="M5045 6875 c-162 -57 -254 -164 -255 -295 0 -83 13 -115 99 -249 l79
-124 155 -1 155 -1 71 111 c92 144 104 173 104 259 0 143 -88 243 -272 306
-30 11 -57 19 -60 19 -3 0 -37 -11 -76 -25z"/>
<path d="M4242 6622 c-87 -31 -124 -80 -124 -162 0 -111 70 -190 289 -327
l147 -92 40 25 c66 41 162 83 217 95 32 7 49 15 46 23 -3 7 -44 74 -92 149
-154 244 -222 298 -380 304 -69 3 -102 -1 -143 -15z"/>
<path d="M5757 6625 c-98 -37 -151 -95 -291 -314 l-85 -135 72 -21 c72 -21
159 -61 209 -96 l26 -19 145 90 c171 106 236 162 271 232 52 105 25 198 -73
245 -45 22 -71 28 -145 30 -61 2 -103 -2 -129 -12z"/>
<path d="M5009 6120 c-174 -21 -339 -91 -436 -185 -52 -50 -63 -67 -63 -94 0
-55 46 -121 85 -121 12 0 66 22 121 49 150 74 248 102 379 108 96 4 123 1 210
-21 58 -15 147 -49 212 -81 62 -30 122 -55 133 -55 29 0 66 40 79 85 21 77
-49 155 -204 229 -106 51 -178 72 -300 86 -99 11 -120 11 -216 0z"/>
<path d="M4988 5774 c-253 -46 -458 -215 -546 -452 -33 -90 -42 -248 -18 -342
103 -408 548 -629 960 -479 242 88 411 293 447 541 49 338 -213 668 -581 734
-93 17 -163 16 -262 -2z"/>
<path d="M4553 4498 c-48 -54 -56 -104 -22 -152 57 -82 211 -170 364 -208 125
-31 343 -31 460 1 157 41 331 146 371 222 28 55 -22 159 -76 159 -11 0 -71
-25 -133 -55 -161 -79 -280 -108 -422 -102 -94 3 -126 9 -220 41 -60 20 -143
55 -183 77 -84 45 -110 48 -139 17z"/>
<path d="M4423 4117 c-73 -45 -154 -99 -181 -120 -90 -72 -140 -174 -122 -254
12 -53 39 -85 96 -113 43 -22 62 -25 154 -25 98 0 109 2 158 30 74 40 135 111
237 272 48 75 89 142 92 149 3 8 -14 16 -46 23 -54 12 -151 54 -216 94 l-40
25 -132 -81z"/>
<path d="M5665 4184 c-37 -30 -177 -93 -231 -105 l-54 -12 22 -36 c12 -20 59
-94 105 -164 144 -222 219 -273 389 -265 75 4 100 10 141 32 126 69 123 223
-9 340 -37 34 -331 228 -341 226 -1 0 -11 -8 -22 -16z"/>
<path d="M4895 3920 c-90 -141 -104 -174 -105 -251 -1 -140 89 -246 259 -305
71 -25 73 -25 124 -8 188 61 281 164 280 309 0 86 -12 114 -106 262 l-72 113
-39 -6 c-53 -9 -172 -8 -222 0 l-41 7 -78 -121z"/>
<path d="M4108 3565 c-56 -31 -87 -159 -54 -223 15 -28 65 -78 104 -104 l23
-16 -45 -26 c-25 -14 -53 -40 -63 -56 -9 -17 -20 -30 -23 -30 -3 0 -27 11 -54
25 -96 49 -198 27 -274 -60 -66 -75 -86 -139 -87 -270 0 -100 3 -116 28 -170
15 -33 42 -75 60 -93 34 -36 96 -72 122 -72 23 0 18 -15 -11 -31 -44 -23 -112
-107 -135 -167 -33 -86 -31 -192 5 -265 52 -107 139 -150 249 -123 31 7 57 12
57 11 0 -1 -12 -29 -27 -61 -37 -81 -42 -179 -14 -254 56 -148 175 -206 297
-145 l50 25 65 -61 c76 -71 213 -166 301 -208 65 -30 226 -81 259 -81 17 0 19
-9 19 -100 l0 -101 81 -120 c44 -67 84 -117 89 -113 4 5 39 57 78 116 l71 106
3 102 3 102 92 23 c170 43 340 138 477 266 l75 70 50 -26 c57 -28 127 -33 169
-11 43 23 99 87 124 141 33 71 30 177 -6 264 -14 36 -26 65 -26 66 0 1 24 -4
52 -11 83 -22 136 -7 201 54 124 119 92 378 -60 486 -24 16 -43 33 -43 37 0 3
13 9 29 12 115 23 215 217 196 381 -26 231 -194 360 -364 281 l-54 -26 -29 35
c-16 19 -46 45 -68 57 l-39 22 44 28 c51 32 93 91 101 140 12 69 -31 160 -83
180 -18 7 -32 3 -62 -15 -183 -116 -488 -231 -731 -277 -85 -16 -327 -16 -410
0 -251 48 -471 129 -701 258 -42 24 -78 43 -80 43 -2 -1 -16 -7 -31 -15z m357
-477 c14 -6 25 -15 25 -20 0 -5 -18 -41 -39 -81 -52 -94 -124 -272 -151 -372
-30 -109 -37 -284 -16 -385 57 -268 305 -529 629 -660 53 -22 57 -26 57 -57 0
-38 -1 -38 -84 -17 -249 63 -510 292 -627 549 -111 246 -102 470 32 779 36 82
138 276 145 276 2 0 15 -5 29 -12z m1397 -79 c65 -114 132 -268 165 -381 25
-84 28 -108 28 -243 0 -165 -9 -209 -70 -341 -87 -191 -236 -354 -423 -462
-70 -41 -180 -84 -244 -96 -38 -7 -38 -7 -38 26 1 32 3 34 128 95 401 194 614
528 563 884 -17 116 -81 304 -155 454 -62 123 -62 125 -42 139 12 8 26 14 31
12 6 -1 31 -40 57 -87z m-1133 -8 c63 -17 141 -33 173 -37 l58 -7 0 -137 c0
-120 -3 -145 -26 -211 -14 -41 -41 -134 -60 -207 -53 -208 -46 -304 50 -626
20 -66 34 -121 32 -123 -7 -7 -129 58 -216 115 -100 66 -231 195 -279 275
-146 246 -130 491 56 865 50 100 70 132 82 129 9 -3 68 -19 130 -36z m997 -88
c69 -137 117 -265 139 -368 19 -91 19 -235 0 -310 -53 -211 -237 -415 -491
-544 -43 -22 -80 -37 -82 -32 -1 5 17 78 42 163 61 210 80 316 72 403 -7 82
-41 219 -91 369 -34 103 -35 111 -33 233 l3 127 100 18 c55 9 136 28 180 42
44 14 85 23 90 22 6 -1 37 -57 71 -123z"/>
</g>
</svg>
